<mxfile host="Electron" agent="Mozilla/5.0 (Windows NT 10.0; Win64; x64) AppleWebKit/537.36 (KHTML, like Gecko) draw.io/26.0.16 Chrome/132.0.6834.196 Electron/34.2.0 Safari/537.36" version="26.0.16">
  <diagram name="第 1 页" id="Wlv5GDjek6-BiEIf7pZ7">
    <mxGraphModel dx="1687" dy="2153" grid="1" gridSize="10" guides="1" tooltips="1" connect="1" arrows="1" fold="1" page="1" pageScale="1" pageWidth="827" pageHeight="1169" math="0" shadow="0">
      <root>
        <mxCell id="0" />
        <mxCell id="1" parent="0" />
        <mxCell id="ISguq8svOf9T5D8Jh1gX-150" style="edgeStyle=orthogonalEdgeStyle;rounded=0;orthogonalLoop=1;jettySize=auto;html=1;exitX=1;exitY=0.5;exitDx=0;exitDy=0;entryX=0;entryY=0.5;entryDx=0;entryDy=0;jumpStyle=arc;" edge="1" parent="1" source="ISguq8svOf9T5D8Jh1gX-114" target="ISguq8svOf9T5D8Jh1gX-116">
          <mxGeometry relative="1" as="geometry" />
        </mxCell>
        <mxCell id="ISguq8svOf9T5D8Jh1gX-28" style="edgeStyle=orthogonalEdgeStyle;rounded=0;orthogonalLoop=1;jettySize=auto;html=1;exitX=0.5;exitY=1;exitDx=0;exitDy=0;entryX=0;entryY=0.5;entryDx=0;entryDy=0;" edge="1" parent="1" source="ISguq8svOf9T5D8Jh1gX-1" target="ISguq8svOf9T5D8Jh1gX-4">
          <mxGeometry relative="1" as="geometry" />
        </mxCell>
        <mxCell id="ISguq8svOf9T5D8Jh1gX-29" style="edgeStyle=orthogonalEdgeStyle;rounded=0;orthogonalLoop=1;jettySize=auto;html=1;exitX=0.5;exitY=1;exitDx=0;exitDy=0;entryX=0.5;entryY=0;entryDx=0;entryDy=0;" edge="1" parent="1" source="ISguq8svOf9T5D8Jh1gX-1" target="ISguq8svOf9T5D8Jh1gX-3">
          <mxGeometry relative="1" as="geometry" />
        </mxCell>
        <mxCell id="ISguq8svOf9T5D8Jh1gX-1" value="D" style="rounded=0;whiteSpace=wrap;html=1;" vertex="1" parent="1">
          <mxGeometry x="440" y="100" width="20" height="20" as="geometry" />
        </mxCell>
        <mxCell id="ISguq8svOf9T5D8Jh1gX-25" style="edgeStyle=orthogonalEdgeStyle;rounded=0;orthogonalLoop=1;jettySize=auto;html=1;exitX=1;exitY=0.5;exitDx=0;exitDy=0;entryX=0.5;entryY=0;entryDx=0;entryDy=0;" edge="1" parent="1" source="ISguq8svOf9T5D8Jh1gX-2" target="ISguq8svOf9T5D8Jh1gX-5">
          <mxGeometry relative="1" as="geometry" />
        </mxCell>
        <mxCell id="ISguq8svOf9T5D8Jh1gX-2" value="" style="shape=sumEllipse;perimeter=ellipsePerimeter;whiteSpace=wrap;html=1;backgroundOutline=1;" vertex="1" parent="1">
          <mxGeometry x="500" y="60" width="20" height="20" as="geometry" />
        </mxCell>
        <mxCell id="ISguq8svOf9T5D8Jh1gX-30" style="edgeStyle=orthogonalEdgeStyle;rounded=0;orthogonalLoop=1;jettySize=auto;html=1;exitX=0.5;exitY=1;exitDx=0;exitDy=0;entryX=0.5;entryY=0;entryDx=0;entryDy=0;" edge="1" parent="1" source="ISguq8svOf9T5D8Jh1gX-3" target="ISguq8svOf9T5D8Jh1gX-6">
          <mxGeometry relative="1" as="geometry" />
        </mxCell>
        <mxCell id="ISguq8svOf9T5D8Jh1gX-31" style="edgeStyle=orthogonalEdgeStyle;rounded=0;orthogonalLoop=1;jettySize=auto;html=1;exitX=0.5;exitY=1;exitDx=0;exitDy=0;entryX=0;entryY=0.5;entryDx=0;entryDy=0;" edge="1" parent="1" source="ISguq8svOf9T5D8Jh1gX-3" target="ISguq8svOf9T5D8Jh1gX-7">
          <mxGeometry relative="1" as="geometry" />
        </mxCell>
        <mxCell id="ISguq8svOf9T5D8Jh1gX-3" value="D" style="rounded=0;whiteSpace=wrap;html=1;" vertex="1" parent="1">
          <mxGeometry x="440" y="260" width="20" height="20" as="geometry" />
        </mxCell>
        <mxCell id="ISguq8svOf9T5D8Jh1gX-26" style="edgeStyle=orthogonalEdgeStyle;rounded=0;orthogonalLoop=1;jettySize=auto;html=1;exitX=1;exitY=0.5;exitDx=0;exitDy=0;entryX=0;entryY=0.5;entryDx=0;entryDy=0;" edge="1" parent="1" source="ISguq8svOf9T5D8Jh1gX-4" target="ISguq8svOf9T5D8Jh1gX-22">
          <mxGeometry relative="1" as="geometry" />
        </mxCell>
        <mxCell id="ISguq8svOf9T5D8Jh1gX-4" value="" style="shape=sumEllipse;perimeter=ellipsePerimeter;whiteSpace=wrap;html=1;backgroundOutline=1;" vertex="1" parent="1">
          <mxGeometry x="500" y="180" width="20" height="20" as="geometry" />
        </mxCell>
        <mxCell id="ISguq8svOf9T5D8Jh1gX-34" style="edgeStyle=orthogonalEdgeStyle;rounded=0;orthogonalLoop=1;jettySize=auto;html=1;exitX=0.5;exitY=1;exitDx=0;exitDy=0;entryX=0.5;entryY=0;entryDx=0;entryDy=0;" edge="1" parent="1" source="ISguq8svOf9T5D8Jh1gX-5" target="ISguq8svOf9T5D8Jh1gX-9">
          <mxGeometry relative="1" as="geometry" />
        </mxCell>
        <mxCell id="ISguq8svOf9T5D8Jh1gX-5" value="" style="shape=orEllipse;perimeter=ellipsePerimeter;whiteSpace=wrap;html=1;backgroundOutline=1;" vertex="1" parent="1">
          <mxGeometry x="660" y="180" width="20" height="20" as="geometry" />
        </mxCell>
        <mxCell id="ISguq8svOf9T5D8Jh1gX-35" style="edgeStyle=orthogonalEdgeStyle;rounded=0;orthogonalLoop=1;jettySize=auto;html=1;exitX=0.5;exitY=1;exitDx=0;exitDy=0;entryX=0;entryY=0.5;entryDx=0;entryDy=0;" edge="1" parent="1" source="ISguq8svOf9T5D8Jh1gX-6" target="ISguq8svOf9T5D8Jh1gX-8">
          <mxGeometry relative="1" as="geometry" />
        </mxCell>
        <mxCell id="ISguq8svOf9T5D8Jh1gX-6" value="D" style="rounded=0;whiteSpace=wrap;html=1;" vertex="1" parent="1">
          <mxGeometry x="440" y="380" width="20" height="20" as="geometry" />
        </mxCell>
        <mxCell id="ISguq8svOf9T5D8Jh1gX-32" style="edgeStyle=orthogonalEdgeStyle;rounded=0;orthogonalLoop=1;jettySize=auto;html=1;exitX=1;exitY=0.5;exitDx=0;exitDy=0;entryX=0;entryY=0.5;entryDx=0;entryDy=0;" edge="1" parent="1" source="ISguq8svOf9T5D8Jh1gX-7" target="ISguq8svOf9T5D8Jh1gX-21">
          <mxGeometry relative="1" as="geometry" />
        </mxCell>
        <mxCell id="ISguq8svOf9T5D8Jh1gX-7" value="" style="shape=sumEllipse;perimeter=ellipsePerimeter;whiteSpace=wrap;html=1;backgroundOutline=1;" vertex="1" parent="1">
          <mxGeometry x="500" y="340" width="20" height="20" as="geometry" />
        </mxCell>
        <mxCell id="ISguq8svOf9T5D8Jh1gX-36" style="edgeStyle=orthogonalEdgeStyle;rounded=0;orthogonalLoop=1;jettySize=auto;html=1;exitX=1;exitY=0.5;exitDx=0;exitDy=0;entryX=0;entryY=0.5;entryDx=0;entryDy=0;" edge="1" parent="1" source="ISguq8svOf9T5D8Jh1gX-8" target="ISguq8svOf9T5D8Jh1gX-10">
          <mxGeometry relative="1" as="geometry" />
        </mxCell>
        <mxCell id="ISguq8svOf9T5D8Jh1gX-8" value="" style="shape=sumEllipse;perimeter=ellipsePerimeter;whiteSpace=wrap;html=1;backgroundOutline=1;" vertex="1" parent="1">
          <mxGeometry x="500" y="460" width="20" height="20" as="geometry" />
        </mxCell>
        <mxCell id="ISguq8svOf9T5D8Jh1gX-37" style="edgeStyle=orthogonalEdgeStyle;rounded=0;orthogonalLoop=1;jettySize=auto;html=1;exitX=0.5;exitY=1;exitDx=0;exitDy=0;entryX=0.5;entryY=0;entryDx=0;entryDy=0;" edge="1" parent="1" source="ISguq8svOf9T5D8Jh1gX-9" target="ISguq8svOf9T5D8Jh1gX-10">
          <mxGeometry relative="1" as="geometry" />
        </mxCell>
        <mxCell id="ISguq8svOf9T5D8Jh1gX-9" value="" style="shape=orEllipse;perimeter=ellipsePerimeter;whiteSpace=wrap;html=1;backgroundOutline=1;" vertex="1" parent="1">
          <mxGeometry x="660" y="340" width="20" height="20" as="geometry" />
        </mxCell>
        <mxCell id="ISguq8svOf9T5D8Jh1gX-38" style="edgeStyle=orthogonalEdgeStyle;rounded=0;orthogonalLoop=1;jettySize=auto;html=1;exitX=0.5;exitY=1;exitDx=0;exitDy=0;" edge="1" parent="1" source="ISguq8svOf9T5D8Jh1gX-10">
          <mxGeometry relative="1" as="geometry">
            <mxPoint x="669.8571428571429" y="520" as="targetPoint" />
          </mxGeometry>
        </mxCell>
        <mxCell id="ISguq8svOf9T5D8Jh1gX-10" value="" style="shape=orEllipse;perimeter=ellipsePerimeter;whiteSpace=wrap;html=1;backgroundOutline=1;" vertex="1" parent="1">
          <mxGeometry x="660" y="460" width="20" height="20" as="geometry" />
        </mxCell>
        <mxCell id="ISguq8svOf9T5D8Jh1gX-12" style="edgeStyle=orthogonalEdgeStyle;rounded=0;orthogonalLoop=1;jettySize=auto;html=1;exitX=0.5;exitY=1;exitDx=0;exitDy=0;entryX=0.5;entryY=0;entryDx=0;entryDy=0;" edge="1" parent="1" source="ISguq8svOf9T5D8Jh1gX-11" target="ISguq8svOf9T5D8Jh1gX-2">
          <mxGeometry relative="1" as="geometry" />
        </mxCell>
        <mxCell id="ISguq8svOf9T5D8Jh1gX-11" value="0.5" style="text;html=1;align=center;verticalAlign=middle;whiteSpace=wrap;rounded=0;" vertex="1" parent="1">
          <mxGeometry x="500" y="30" width="20" height="20" as="geometry" />
        </mxCell>
        <mxCell id="ISguq8svOf9T5D8Jh1gX-14" style="edgeStyle=orthogonalEdgeStyle;rounded=0;orthogonalLoop=1;jettySize=auto;html=1;exitX=0.5;exitY=1;exitDx=0;exitDy=0;entryX=0.5;entryY=0;entryDx=0;entryDy=0;" edge="1" parent="1" source="ISguq8svOf9T5D8Jh1gX-13" target="ISguq8svOf9T5D8Jh1gX-4">
          <mxGeometry relative="1" as="geometry" />
        </mxCell>
        <mxCell id="ISguq8svOf9T5D8Jh1gX-13" value="0.5" style="text;html=1;align=center;verticalAlign=middle;whiteSpace=wrap;rounded=0;" vertex="1" parent="1">
          <mxGeometry x="500" y="150" width="20" height="20" as="geometry" />
        </mxCell>
        <mxCell id="ISguq8svOf9T5D8Jh1gX-16" style="edgeStyle=orthogonalEdgeStyle;rounded=0;orthogonalLoop=1;jettySize=auto;html=1;exitX=0.5;exitY=1;exitDx=0;exitDy=0;entryX=0.5;entryY=0;entryDx=0;entryDy=0;" edge="1" parent="1" source="ISguq8svOf9T5D8Jh1gX-15" target="ISguq8svOf9T5D8Jh1gX-7">
          <mxGeometry relative="1" as="geometry" />
        </mxCell>
        <mxCell id="ISguq8svOf9T5D8Jh1gX-15" value="0.5" style="text;html=1;align=center;verticalAlign=middle;whiteSpace=wrap;rounded=0;" vertex="1" parent="1">
          <mxGeometry x="500" y="310" width="20" height="20" as="geometry" />
        </mxCell>
        <mxCell id="ISguq8svOf9T5D8Jh1gX-19" style="edgeStyle=orthogonalEdgeStyle;rounded=0;orthogonalLoop=1;jettySize=auto;html=1;exitX=0.5;exitY=1;exitDx=0;exitDy=0;entryX=0.5;entryY=0;entryDx=0;entryDy=0;" edge="1" parent="1" source="ISguq8svOf9T5D8Jh1gX-17" target="ISguq8svOf9T5D8Jh1gX-8">
          <mxGeometry relative="1" as="geometry" />
        </mxCell>
        <mxCell id="ISguq8svOf9T5D8Jh1gX-17" value="0.5" style="text;html=1;align=center;verticalAlign=middle;whiteSpace=wrap;rounded=0;" vertex="1" parent="1">
          <mxGeometry x="500" y="430" width="20" height="20" as="geometry" />
        </mxCell>
        <mxCell id="ISguq8svOf9T5D8Jh1gX-23" style="edgeStyle=orthogonalEdgeStyle;rounded=0;orthogonalLoop=1;jettySize=auto;html=1;exitX=1;exitY=0.5;exitDx=0;exitDy=0;entryX=0.5;entryY=0;entryDx=0;entryDy=0;" edge="1" parent="1" source="ISguq8svOf9T5D8Jh1gX-20" target="ISguq8svOf9T5D8Jh1gX-1">
          <mxGeometry relative="1" as="geometry" />
        </mxCell>
        <mxCell id="ISguq8svOf9T5D8Jh1gX-24" style="edgeStyle=orthogonalEdgeStyle;rounded=0;orthogonalLoop=1;jettySize=auto;html=1;exitX=1;exitY=0.5;exitDx=0;exitDy=0;entryX=0;entryY=0.5;entryDx=0;entryDy=0;" edge="1" parent="1" source="ISguq8svOf9T5D8Jh1gX-20" target="ISguq8svOf9T5D8Jh1gX-2">
          <mxGeometry relative="1" as="geometry">
            <Array as="points">
              <mxPoint x="450" y="-15" />
              <mxPoint x="450" y="70" />
            </Array>
          </mxGeometry>
        </mxCell>
        <mxCell id="ISguq8svOf9T5D8Jh1gX-85" style="edgeStyle=orthogonalEdgeStyle;rounded=0;orthogonalLoop=1;jettySize=auto;html=1;exitX=1;exitY=0.5;exitDx=0;exitDy=0;entryX=0.5;entryY=0;entryDx=0;entryDy=0;" edge="1" parent="1" source="ISguq8svOf9T5D8Jh1gX-20" target="ISguq8svOf9T5D8Jh1gX-41">
          <mxGeometry relative="1" as="geometry" />
        </mxCell>
        <mxCell id="ISguq8svOf9T5D8Jh1gX-86" style="edgeStyle=orthogonalEdgeStyle;rounded=0;orthogonalLoop=1;jettySize=auto;html=1;exitX=1;exitY=0.5;exitDx=0;exitDy=0;entryX=0;entryY=0.5;entryDx=0;entryDy=0;" edge="1" parent="1" source="ISguq8svOf9T5D8Jh1gX-20" target="ISguq8svOf9T5D8Jh1gX-43">
          <mxGeometry relative="1" as="geometry">
            <Array as="points">
              <mxPoint x="810" y="-15" />
              <mxPoint x="810" y="70" />
            </Array>
          </mxGeometry>
        </mxCell>
        <mxCell id="ISguq8svOf9T5D8Jh1gX-89" style="edgeStyle=orthogonalEdgeStyle;rounded=0;orthogonalLoop=1;jettySize=auto;html=1;exitX=1;exitY=0.5;exitDx=0;exitDy=0;entryX=0.5;entryY=0;entryDx=0;entryDy=0;" edge="1" parent="1" source="ISguq8svOf9T5D8Jh1gX-161" target="ISguq8svOf9T5D8Jh1gX-87">
          <mxGeometry relative="1" as="geometry" />
        </mxCell>
        <mxCell id="ISguq8svOf9T5D8Jh1gX-20" value="x(m + 2)" style="text;html=1;align=center;verticalAlign=middle;whiteSpace=wrap;rounded=0;" vertex="1" parent="1">
          <mxGeometry x="320" y="-30" width="65" height="30" as="geometry" />
        </mxCell>
        <mxCell id="ISguq8svOf9T5D8Jh1gX-33" style="edgeStyle=orthogonalEdgeStyle;rounded=0;orthogonalLoop=1;jettySize=auto;html=1;exitX=1;exitY=0.5;exitDx=0;exitDy=0;entryX=0;entryY=0.5;entryDx=0;entryDy=0;" edge="1" parent="1" source="ISguq8svOf9T5D8Jh1gX-21" target="ISguq8svOf9T5D8Jh1gX-9">
          <mxGeometry relative="1" as="geometry" />
        </mxCell>
        <mxCell id="ISguq8svOf9T5D8Jh1gX-21" value="x-1" style="rounded=0;whiteSpace=wrap;html=1;" vertex="1" parent="1">
          <mxGeometry x="580" y="340" width="20" height="20" as="geometry" />
        </mxCell>
        <mxCell id="ISguq8svOf9T5D8Jh1gX-27" style="edgeStyle=orthogonalEdgeStyle;rounded=0;orthogonalLoop=1;jettySize=auto;html=1;exitX=1;exitY=0.5;exitDx=0;exitDy=0;entryX=0;entryY=0.5;entryDx=0;entryDy=0;" edge="1" parent="1" source="ISguq8svOf9T5D8Jh1gX-22" target="ISguq8svOf9T5D8Jh1gX-5">
          <mxGeometry relative="1" as="geometry" />
        </mxCell>
        <mxCell id="ISguq8svOf9T5D8Jh1gX-22" value="x-1" style="rounded=0;whiteSpace=wrap;html=1;" vertex="1" parent="1">
          <mxGeometry x="580" y="180" width="20" height="20" as="geometry" />
        </mxCell>
        <mxCell id="ISguq8svOf9T5D8Jh1gX-39" style="edgeStyle=orthogonalEdgeStyle;rounded=0;orthogonalLoop=1;jettySize=auto;html=1;exitX=0.5;exitY=1;exitDx=0;exitDy=0;entryX=0;entryY=0.5;entryDx=0;entryDy=0;" edge="1" parent="1" source="ISguq8svOf9T5D8Jh1gX-41" target="ISguq8svOf9T5D8Jh1gX-48">
          <mxGeometry relative="1" as="geometry" />
        </mxCell>
        <mxCell id="ISguq8svOf9T5D8Jh1gX-40" style="edgeStyle=orthogonalEdgeStyle;rounded=0;orthogonalLoop=1;jettySize=auto;html=1;exitX=0.5;exitY=1;exitDx=0;exitDy=0;entryX=0.5;entryY=0;entryDx=0;entryDy=0;" edge="1" parent="1" source="ISguq8svOf9T5D8Jh1gX-41" target="ISguq8svOf9T5D8Jh1gX-46">
          <mxGeometry relative="1" as="geometry" />
        </mxCell>
        <mxCell id="ISguq8svOf9T5D8Jh1gX-82" style="edgeStyle=orthogonalEdgeStyle;rounded=0;orthogonalLoop=1;jettySize=auto;html=1;exitX=0.5;exitY=1;exitDx=0;exitDy=0;entryX=0;entryY=0.5;entryDx=0;entryDy=0;" edge="1" parent="1" source="ISguq8svOf9T5D8Jh1gX-41" target="ISguq8svOf9T5D8Jh1gX-75">
          <mxGeometry relative="1" as="geometry" />
        </mxCell>
        <mxCell id="ISguq8svOf9T5D8Jh1gX-41" value="D" style="rounded=0;whiteSpace=wrap;html=1;" vertex="1" parent="1">
          <mxGeometry x="800" y="100" width="20" height="20" as="geometry" />
        </mxCell>
        <mxCell id="ISguq8svOf9T5D8Jh1gX-83" style="edgeStyle=orthogonalEdgeStyle;rounded=0;orthogonalLoop=1;jettySize=auto;html=1;exitX=1;exitY=0.5;exitDx=0;exitDy=0;entryX=0;entryY=0.5;entryDx=0;entryDy=0;" edge="1" parent="1" source="ISguq8svOf9T5D8Jh1gX-43" target="ISguq8svOf9T5D8Jh1gX-73">
          <mxGeometry relative="1" as="geometry" />
        </mxCell>
        <mxCell id="ISguq8svOf9T5D8Jh1gX-43" value="" style="shape=sumEllipse;perimeter=ellipsePerimeter;whiteSpace=wrap;html=1;backgroundOutline=1;" vertex="1" parent="1">
          <mxGeometry x="860" y="60" width="20" height="20" as="geometry" />
        </mxCell>
        <mxCell id="ISguq8svOf9T5D8Jh1gX-44" style="edgeStyle=orthogonalEdgeStyle;rounded=0;orthogonalLoop=1;jettySize=auto;html=1;exitX=0.5;exitY=1;exitDx=0;exitDy=0;entryX=0.5;entryY=0;entryDx=0;entryDy=0;" edge="1" parent="1" source="ISguq8svOf9T5D8Jh1gX-46" target="ISguq8svOf9T5D8Jh1gX-52">
          <mxGeometry relative="1" as="geometry" />
        </mxCell>
        <mxCell id="ISguq8svOf9T5D8Jh1gX-45" style="edgeStyle=orthogonalEdgeStyle;rounded=0;orthogonalLoop=1;jettySize=auto;html=1;exitX=0.5;exitY=1;exitDx=0;exitDy=0;entryX=0;entryY=0.5;entryDx=0;entryDy=0;" edge="1" parent="1" source="ISguq8svOf9T5D8Jh1gX-46" target="ISguq8svOf9T5D8Jh1gX-54">
          <mxGeometry relative="1" as="geometry" />
        </mxCell>
        <mxCell id="ISguq8svOf9T5D8Jh1gX-46" value="D" style="rounded=0;whiteSpace=wrap;html=1;" vertex="1" parent="1">
          <mxGeometry x="800" y="260" width="20" height="20" as="geometry" />
        </mxCell>
        <mxCell id="ISguq8svOf9T5D8Jh1gX-74" style="edgeStyle=orthogonalEdgeStyle;rounded=0;orthogonalLoop=1;jettySize=auto;html=1;exitX=1;exitY=0.5;exitDx=0;exitDy=0;entryX=0;entryY=0.5;entryDx=0;entryDy=0;" edge="1" parent="1" source="ISguq8svOf9T5D8Jh1gX-48" target="ISguq8svOf9T5D8Jh1gX-50">
          <mxGeometry relative="1" as="geometry" />
        </mxCell>
        <mxCell id="ISguq8svOf9T5D8Jh1gX-48" value="" style="shape=sumEllipse;perimeter=ellipsePerimeter;whiteSpace=wrap;html=1;backgroundOutline=1;" vertex="1" parent="1">
          <mxGeometry x="860" y="180" width="20" height="20" as="geometry" />
        </mxCell>
        <mxCell id="ISguq8svOf9T5D8Jh1gX-81" style="edgeStyle=orthogonalEdgeStyle;rounded=0;orthogonalLoop=1;jettySize=auto;html=1;exitX=0.5;exitY=1;exitDx=0;exitDy=0;entryX=0.5;entryY=0;entryDx=0;entryDy=0;" edge="1" parent="1" source="ISguq8svOf9T5D8Jh1gX-50" target="ISguq8svOf9T5D8Jh1gX-75">
          <mxGeometry relative="1" as="geometry" />
        </mxCell>
        <mxCell id="ISguq8svOf9T5D8Jh1gX-50" value="" style="shape=orEllipse;perimeter=ellipsePerimeter;whiteSpace=wrap;html=1;backgroundOutline=1;" vertex="1" parent="1">
          <mxGeometry x="1020" y="180" width="20" height="20" as="geometry" />
        </mxCell>
        <mxCell id="ISguq8svOf9T5D8Jh1gX-51" style="edgeStyle=orthogonalEdgeStyle;rounded=0;orthogonalLoop=1;jettySize=auto;html=1;exitX=0.5;exitY=1;exitDx=0;exitDy=0;entryX=0;entryY=0.5;entryDx=0;entryDy=0;" edge="1" parent="1" source="ISguq8svOf9T5D8Jh1gX-52" target="ISguq8svOf9T5D8Jh1gX-56">
          <mxGeometry relative="1" as="geometry" />
        </mxCell>
        <mxCell id="ISguq8svOf9T5D8Jh1gX-52" value="D" style="rounded=0;whiteSpace=wrap;html=1;" vertex="1" parent="1">
          <mxGeometry x="800" y="380" width="20" height="20" as="geometry" />
        </mxCell>
        <mxCell id="ISguq8svOf9T5D8Jh1gX-53" style="edgeStyle=orthogonalEdgeStyle;rounded=0;orthogonalLoop=1;jettySize=auto;html=1;exitX=1;exitY=0.5;exitDx=0;exitDy=0;entryX=0;entryY=0.5;entryDx=0;entryDy=0;" edge="1" parent="1" source="ISguq8svOf9T5D8Jh1gX-54" target="ISguq8svOf9T5D8Jh1gX-70">
          <mxGeometry relative="1" as="geometry" />
        </mxCell>
        <mxCell id="ISguq8svOf9T5D8Jh1gX-54" value="" style="shape=sumEllipse;perimeter=ellipsePerimeter;whiteSpace=wrap;html=1;backgroundOutline=1;" vertex="1" parent="1">
          <mxGeometry x="860" y="340" width="20" height="20" as="geometry" />
        </mxCell>
        <mxCell id="ISguq8svOf9T5D8Jh1gX-78" style="edgeStyle=orthogonalEdgeStyle;rounded=0;orthogonalLoop=1;jettySize=auto;html=1;exitX=1;exitY=0.5;exitDx=0;exitDy=0;entryX=0;entryY=0.5;entryDx=0;entryDy=0;" edge="1" parent="1" source="ISguq8svOf9T5D8Jh1gX-56" target="ISguq8svOf9T5D8Jh1gX-77">
          <mxGeometry relative="1" as="geometry" />
        </mxCell>
        <mxCell id="ISguq8svOf9T5D8Jh1gX-56" value="" style="shape=sumEllipse;perimeter=ellipsePerimeter;whiteSpace=wrap;html=1;backgroundOutline=1;" vertex="1" parent="1">
          <mxGeometry x="860" y="460" width="20" height="20" as="geometry" />
        </mxCell>
        <mxCell id="ISguq8svOf9T5D8Jh1gX-57" style="edgeStyle=orthogonalEdgeStyle;rounded=0;orthogonalLoop=1;jettySize=auto;html=1;exitX=0.5;exitY=1;exitDx=0;exitDy=0;entryX=0.5;entryY=0;entryDx=0;entryDy=0;" edge="1" parent="1" source="ISguq8svOf9T5D8Jh1gX-58" target="ISguq8svOf9T5D8Jh1gX-60">
          <mxGeometry relative="1" as="geometry" />
        </mxCell>
        <mxCell id="ISguq8svOf9T5D8Jh1gX-58" value="" style="shape=orEllipse;perimeter=ellipsePerimeter;whiteSpace=wrap;html=1;backgroundOutline=1;" vertex="1" parent="1">
          <mxGeometry x="1020" y="340" width="20" height="20" as="geometry" />
        </mxCell>
        <mxCell id="ISguq8svOf9T5D8Jh1gX-59" style="edgeStyle=orthogonalEdgeStyle;rounded=0;orthogonalLoop=1;jettySize=auto;html=1;exitX=0.5;exitY=1;exitDx=0;exitDy=0;" edge="1" parent="1" source="ISguq8svOf9T5D8Jh1gX-60">
          <mxGeometry relative="1" as="geometry">
            <mxPoint x="1029.857142857143" y="520" as="targetPoint" />
          </mxGeometry>
        </mxCell>
        <mxCell id="ISguq8svOf9T5D8Jh1gX-60" value="" style="shape=orEllipse;perimeter=ellipsePerimeter;whiteSpace=wrap;html=1;backgroundOutline=1;" vertex="1" parent="1">
          <mxGeometry x="1020" y="460" width="20" height="20" as="geometry" />
        </mxCell>
        <mxCell id="ISguq8svOf9T5D8Jh1gX-61" style="edgeStyle=orthogonalEdgeStyle;rounded=0;orthogonalLoop=1;jettySize=auto;html=1;exitX=0.5;exitY=1;exitDx=0;exitDy=0;entryX=0.5;entryY=0;entryDx=0;entryDy=0;" edge="1" parent="1" source="ISguq8svOf9T5D8Jh1gX-62" target="ISguq8svOf9T5D8Jh1gX-43">
          <mxGeometry relative="1" as="geometry" />
        </mxCell>
        <mxCell id="ISguq8svOf9T5D8Jh1gX-62" value="0.5" style="text;html=1;align=center;verticalAlign=middle;whiteSpace=wrap;rounded=0;" vertex="1" parent="1">
          <mxGeometry x="860" y="30" width="20" height="20" as="geometry" />
        </mxCell>
        <mxCell id="ISguq8svOf9T5D8Jh1gX-63" style="edgeStyle=orthogonalEdgeStyle;rounded=0;orthogonalLoop=1;jettySize=auto;html=1;exitX=0.5;exitY=1;exitDx=0;exitDy=0;entryX=0.5;entryY=0;entryDx=0;entryDy=0;" edge="1" parent="1" source="ISguq8svOf9T5D8Jh1gX-64" target="ISguq8svOf9T5D8Jh1gX-48">
          <mxGeometry relative="1" as="geometry" />
        </mxCell>
        <mxCell id="ISguq8svOf9T5D8Jh1gX-64" value="0.5" style="text;html=1;align=center;verticalAlign=middle;whiteSpace=wrap;rounded=0;" vertex="1" parent="1">
          <mxGeometry x="860" y="150" width="20" height="20" as="geometry" />
        </mxCell>
        <mxCell id="ISguq8svOf9T5D8Jh1gX-65" style="edgeStyle=orthogonalEdgeStyle;rounded=0;orthogonalLoop=1;jettySize=auto;html=1;exitX=0.5;exitY=1;exitDx=0;exitDy=0;entryX=0.5;entryY=0;entryDx=0;entryDy=0;" edge="1" parent="1" source="ISguq8svOf9T5D8Jh1gX-66" target="ISguq8svOf9T5D8Jh1gX-54">
          <mxGeometry relative="1" as="geometry" />
        </mxCell>
        <mxCell id="ISguq8svOf9T5D8Jh1gX-66" value="0.5" style="text;html=1;align=center;verticalAlign=middle;whiteSpace=wrap;rounded=0;" vertex="1" parent="1">
          <mxGeometry x="860" y="310" width="20" height="20" as="geometry" />
        </mxCell>
        <mxCell id="ISguq8svOf9T5D8Jh1gX-67" style="edgeStyle=orthogonalEdgeStyle;rounded=0;orthogonalLoop=1;jettySize=auto;html=1;exitX=0.5;exitY=1;exitDx=0;exitDy=0;entryX=0.5;entryY=0;entryDx=0;entryDy=0;" edge="1" parent="1" source="ISguq8svOf9T5D8Jh1gX-68" target="ISguq8svOf9T5D8Jh1gX-56">
          <mxGeometry relative="1" as="geometry" />
        </mxCell>
        <mxCell id="ISguq8svOf9T5D8Jh1gX-68" value="0.5" style="text;html=1;align=center;verticalAlign=middle;whiteSpace=wrap;rounded=0;" vertex="1" parent="1">
          <mxGeometry x="860" y="430" width="20" height="20" as="geometry" />
        </mxCell>
        <mxCell id="ISguq8svOf9T5D8Jh1gX-69" style="edgeStyle=orthogonalEdgeStyle;rounded=0;orthogonalLoop=1;jettySize=auto;html=1;exitX=1;exitY=0.5;exitDx=0;exitDy=0;entryX=0;entryY=0.5;entryDx=0;entryDy=0;" edge="1" parent="1" source="ISguq8svOf9T5D8Jh1gX-70" target="ISguq8svOf9T5D8Jh1gX-58">
          <mxGeometry relative="1" as="geometry" />
        </mxCell>
        <mxCell id="ISguq8svOf9T5D8Jh1gX-70" value="x-1" style="rounded=0;whiteSpace=wrap;html=1;" vertex="1" parent="1">
          <mxGeometry x="940" y="340" width="20" height="20" as="geometry" />
        </mxCell>
        <mxCell id="ISguq8svOf9T5D8Jh1gX-84" style="edgeStyle=orthogonalEdgeStyle;rounded=0;orthogonalLoop=1;jettySize=auto;html=1;exitX=1;exitY=0.5;exitDx=0;exitDy=0;entryX=0.5;entryY=0;entryDx=0;entryDy=0;" edge="1" parent="1" source="ISguq8svOf9T5D8Jh1gX-73" target="ISguq8svOf9T5D8Jh1gX-50">
          <mxGeometry relative="1" as="geometry" />
        </mxCell>
        <mxCell id="ISguq8svOf9T5D8Jh1gX-73" value="x-1" style="rounded=0;whiteSpace=wrap;html=1;" vertex="1" parent="1">
          <mxGeometry x="940" y="60" width="20" height="20" as="geometry" />
        </mxCell>
        <mxCell id="ISguq8svOf9T5D8Jh1gX-80" style="edgeStyle=orthogonalEdgeStyle;rounded=0;orthogonalLoop=1;jettySize=auto;html=1;exitX=0.5;exitY=1;exitDx=0;exitDy=0;entryX=0.5;entryY=0;entryDx=0;entryDy=0;" edge="1" parent="1" source="ISguq8svOf9T5D8Jh1gX-75" target="ISguq8svOf9T5D8Jh1gX-58">
          <mxGeometry relative="1" as="geometry" />
        </mxCell>
        <mxCell id="ISguq8svOf9T5D8Jh1gX-75" value="" style="shape=orEllipse;perimeter=ellipsePerimeter;whiteSpace=wrap;html=1;backgroundOutline=1;" vertex="1" parent="1">
          <mxGeometry x="1020" y="220" width="20" height="20" as="geometry" />
        </mxCell>
        <mxCell id="ISguq8svOf9T5D8Jh1gX-79" style="edgeStyle=orthogonalEdgeStyle;rounded=0;orthogonalLoop=1;jettySize=auto;html=1;exitX=1;exitY=0.5;exitDx=0;exitDy=0;entryX=0;entryY=0.5;entryDx=0;entryDy=0;" edge="1" parent="1" source="ISguq8svOf9T5D8Jh1gX-77" target="ISguq8svOf9T5D8Jh1gX-60">
          <mxGeometry relative="1" as="geometry" />
        </mxCell>
        <mxCell id="ISguq8svOf9T5D8Jh1gX-77" value="x-1" style="rounded=0;whiteSpace=wrap;html=1;" vertex="1" parent="1">
          <mxGeometry x="940" y="460" width="20" height="20" as="geometry" />
        </mxCell>
        <mxCell id="ISguq8svOf9T5D8Jh1gX-90" style="edgeStyle=orthogonalEdgeStyle;rounded=0;orthogonalLoop=1;jettySize=auto;html=1;exitX=0.5;exitY=1;exitDx=0;exitDy=0;entryX=0.5;entryY=0;entryDx=0;entryDy=0;" edge="1" parent="1" source="ISguq8svOf9T5D8Jh1gX-87" target="ISguq8svOf9T5D8Jh1gX-88">
          <mxGeometry relative="1" as="geometry" />
        </mxCell>
        <mxCell id="ISguq8svOf9T5D8Jh1gX-87" value="D" style="rounded=0;whiteSpace=wrap;html=1;" vertex="1" parent="1">
          <mxGeometry x="1120" y="100" width="20" height="20" as="geometry" />
        </mxCell>
        <mxCell id="ISguq8svOf9T5D8Jh1gX-98" style="edgeStyle=orthogonalEdgeStyle;rounded=0;orthogonalLoop=1;jettySize=auto;html=1;exitX=0.5;exitY=1;exitDx=0;exitDy=0;entryX=0.5;entryY=0;entryDx=0;entryDy=0;" edge="1" parent="1" source="ISguq8svOf9T5D8Jh1gX-88" target="ISguq8svOf9T5D8Jh1gX-96">
          <mxGeometry relative="1" as="geometry" />
        </mxCell>
        <mxCell id="ISguq8svOf9T5D8Jh1gX-88" value="D" style="rounded=0;whiteSpace=wrap;html=1;" vertex="1" parent="1">
          <mxGeometry x="1120" y="260" width="20" height="20" as="geometry" />
        </mxCell>
        <mxCell id="ISguq8svOf9T5D8Jh1gX-94" style="edgeStyle=orthogonalEdgeStyle;rounded=0;orthogonalLoop=1;jettySize=auto;html=1;exitX=1;exitY=0.5;exitDx=0;exitDy=0;entryX=0;entryY=0.5;entryDx=0;entryDy=0;" edge="1" parent="1" source="ISguq8svOf9T5D8Jh1gX-91" target="ISguq8svOf9T5D8Jh1gX-93">
          <mxGeometry relative="1" as="geometry" />
        </mxCell>
        <mxCell id="ISguq8svOf9T5D8Jh1gX-91" value="" style="shape=sumEllipse;perimeter=ellipsePerimeter;whiteSpace=wrap;html=1;backgroundOutline=1;" vertex="1" parent="1">
          <mxGeometry x="660" y="520" width="20" height="20" as="geometry" />
        </mxCell>
        <mxCell id="ISguq8svOf9T5D8Jh1gX-97" style="edgeStyle=orthogonalEdgeStyle;rounded=0;orthogonalLoop=1;jettySize=auto;html=1;exitX=1;exitY=0.5;exitDx=0;exitDy=0;entryX=0;entryY=0.5;entryDx=0;entryDy=0;" edge="1" parent="1" source="ISguq8svOf9T5D8Jh1gX-92" target="ISguq8svOf9T5D8Jh1gX-96">
          <mxGeometry relative="1" as="geometry" />
        </mxCell>
        <mxCell id="ISguq8svOf9T5D8Jh1gX-92" value="" style="shape=sumEllipse;perimeter=ellipsePerimeter;whiteSpace=wrap;html=1;backgroundOutline=1;" vertex="1" parent="1">
          <mxGeometry x="1060" y="520" width="20" height="20" as="geometry" />
        </mxCell>
        <mxCell id="ISguq8svOf9T5D8Jh1gX-95" style="edgeStyle=orthogonalEdgeStyle;rounded=0;orthogonalLoop=1;jettySize=auto;html=1;exitX=1;exitY=0.5;exitDx=0;exitDy=0;entryX=0;entryY=0.5;entryDx=0;entryDy=0;" edge="1" parent="1" source="ISguq8svOf9T5D8Jh1gX-93" target="ISguq8svOf9T5D8Jh1gX-92">
          <mxGeometry relative="1" as="geometry" />
        </mxCell>
        <mxCell id="ISguq8svOf9T5D8Jh1gX-93" value="" style="shape=orEllipse;perimeter=ellipsePerimeter;whiteSpace=wrap;html=1;backgroundOutline=1;" vertex="1" parent="1">
          <mxGeometry x="1020" y="520" width="20" height="20" as="geometry" />
        </mxCell>
        <mxCell id="ISguq8svOf9T5D8Jh1gX-103" style="edgeStyle=orthogonalEdgeStyle;rounded=0;orthogonalLoop=1;jettySize=auto;html=1;exitX=1;exitY=0.5;exitDx=0;exitDy=0;" edge="1" parent="1" source="ISguq8svOf9T5D8Jh1gX-96">
          <mxGeometry relative="1" as="geometry">
            <mxPoint x="1210" y="529.8333333333335" as="targetPoint" />
          </mxGeometry>
        </mxCell>
        <mxCell id="ISguq8svOf9T5D8Jh1gX-96" value="" style="shape=orEllipse;perimeter=ellipsePerimeter;whiteSpace=wrap;html=1;backgroundOutline=1;" vertex="1" parent="1">
          <mxGeometry x="1120" y="520" width="20" height="20" as="geometry" />
        </mxCell>
        <mxCell id="ISguq8svOf9T5D8Jh1gX-101" style="edgeStyle=orthogonalEdgeStyle;rounded=0;orthogonalLoop=1;jettySize=auto;html=1;exitX=0.5;exitY=0;exitDx=0;exitDy=0;entryX=0.5;entryY=1;entryDx=0;entryDy=0;" edge="1" parent="1" source="ISguq8svOf9T5D8Jh1gX-99" target="ISguq8svOf9T5D8Jh1gX-91">
          <mxGeometry relative="1" as="geometry" />
        </mxCell>
        <mxCell id="ISguq8svOf9T5D8Jh1gX-99" value="u" style="text;html=1;align=center;verticalAlign=middle;whiteSpace=wrap;rounded=0;" vertex="1" parent="1">
          <mxGeometry x="657.5" y="555" width="25" height="30" as="geometry" />
        </mxCell>
        <mxCell id="ISguq8svOf9T5D8Jh1gX-102" style="edgeStyle=orthogonalEdgeStyle;rounded=0;orthogonalLoop=1;jettySize=auto;html=1;exitX=0.5;exitY=0;exitDx=0;exitDy=0;entryX=0.5;entryY=1;entryDx=0;entryDy=0;" edge="1" parent="1" source="ISguq8svOf9T5D8Jh1gX-100" target="ISguq8svOf9T5D8Jh1gX-92">
          <mxGeometry relative="1" as="geometry" />
        </mxCell>
        <mxCell id="ISguq8svOf9T5D8Jh1gX-100" value="u" style="text;html=1;align=center;verticalAlign=middle;whiteSpace=wrap;rounded=0;" vertex="1" parent="1">
          <mxGeometry x="1057" y="555" width="25" height="30" as="geometry" />
        </mxCell>
        <mxCell id="ISguq8svOf9T5D8Jh1gX-127" style="edgeStyle=orthogonalEdgeStyle;rounded=0;orthogonalLoop=1;jettySize=auto;html=1;exitX=1;exitY=0.5;exitDx=0;exitDy=0;entryX=0;entryY=0.5;entryDx=0;entryDy=0;" edge="1" parent="1" source="ISguq8svOf9T5D8Jh1gX-104" target="ISguq8svOf9T5D8Jh1gX-108">
          <mxGeometry relative="1" as="geometry" />
        </mxCell>
        <mxCell id="ISguq8svOf9T5D8Jh1gX-135" style="edgeStyle=orthogonalEdgeStyle;rounded=0;orthogonalLoop=1;jettySize=auto;html=1;exitX=1;exitY=0.5;exitDx=0;exitDy=0;entryX=0.5;entryY=0;entryDx=0;entryDy=0;" edge="1" parent="1" source="ISguq8svOf9T5D8Jh1gX-104" target="ISguq8svOf9T5D8Jh1gX-107">
          <mxGeometry relative="1" as="geometry" />
        </mxCell>
        <mxCell id="ISguq8svOf9T5D8Jh1gX-151" style="edgeStyle=orthogonalEdgeStyle;rounded=0;orthogonalLoop=1;jettySize=auto;html=1;exitX=1;exitY=0.5;exitDx=0;exitDy=0;entryX=0.5;entryY=0;entryDx=0;entryDy=0;jumpStyle=arc;jumpSize=9;" edge="1" parent="1" source="ISguq8svOf9T5D8Jh1gX-104" target="ISguq8svOf9T5D8Jh1gX-120">
          <mxGeometry relative="1" as="geometry">
            <Array as="points">
              <mxPoint x="610" y="710" />
              <mxPoint x="610" y="740" />
              <mxPoint x="690" y="740" />
            </Array>
          </mxGeometry>
        </mxCell>
        <mxCell id="ISguq8svOf9T5D8Jh1gX-104" value="D" style="rounded=0;whiteSpace=wrap;html=1;" vertex="1" parent="1">
          <mxGeometry x="480" y="700" width="20" height="20" as="geometry" />
        </mxCell>
        <mxCell id="ISguq8svOf9T5D8Jh1gX-133" style="edgeStyle=orthogonalEdgeStyle;rounded=0;orthogonalLoop=1;jettySize=auto;html=1;exitX=1;exitY=0.5;exitDx=0;exitDy=0;entryX=0.5;entryY=0;entryDx=0;entryDy=0;" edge="1" parent="1" source="ISguq8svOf9T5D8Jh1gX-105" target="ISguq8svOf9T5D8Jh1gX-110">
          <mxGeometry relative="1" as="geometry" />
        </mxCell>
        <mxCell id="ISguq8svOf9T5D8Jh1gX-105" value="D" style="rounded=0;whiteSpace=wrap;html=1;" vertex="1" parent="1">
          <mxGeometry x="880" y="700" width="20" height="20" as="geometry" />
        </mxCell>
        <mxCell id="ISguq8svOf9T5D8Jh1gX-144" style="edgeStyle=orthogonalEdgeStyle;rounded=0;orthogonalLoop=1;jettySize=auto;html=1;exitX=0.5;exitY=1;exitDx=0;exitDy=0;entryX=0;entryY=0.5;entryDx=0;entryDy=0;" edge="1" parent="1" source="ISguq8svOf9T5D8Jh1gX-106" target="ISguq8svOf9T5D8Jh1gX-114">
          <mxGeometry relative="1" as="geometry" />
        </mxCell>
        <mxCell id="ISguq8svOf9T5D8Jh1gX-145" style="edgeStyle=orthogonalEdgeStyle;rounded=0;orthogonalLoop=1;jettySize=auto;html=1;exitX=0.5;exitY=1;exitDx=0;exitDy=0;entryX=0.5;entryY=0;entryDx=0;entryDy=0;" edge="1" parent="1" source="ISguq8svOf9T5D8Jh1gX-106" target="ISguq8svOf9T5D8Jh1gX-143">
          <mxGeometry relative="1" as="geometry" />
        </mxCell>
        <mxCell id="ISguq8svOf9T5D8Jh1gX-106" value="" style="shape=sumEllipse;perimeter=ellipsePerimeter;whiteSpace=wrap;html=1;backgroundOutline=1;" vertex="1" parent="1">
          <mxGeometry x="400" y="760" width="20" height="20" as="geometry" />
        </mxCell>
        <mxCell id="ISguq8svOf9T5D8Jh1gX-136" style="edgeStyle=orthogonalEdgeStyle;rounded=0;orthogonalLoop=1;jettySize=auto;html=1;exitX=0.5;exitY=1;exitDx=0;exitDy=0;entryX=0.5;entryY=0;entryDx=0;entryDy=0;" edge="1" parent="1" source="ISguq8svOf9T5D8Jh1gX-107" target="ISguq8svOf9T5D8Jh1gX-112">
          <mxGeometry relative="1" as="geometry" />
        </mxCell>
        <mxCell id="ISguq8svOf9T5D8Jh1gX-147" style="edgeStyle=orthogonalEdgeStyle;rounded=0;orthogonalLoop=1;jettySize=auto;html=1;exitX=0.5;exitY=1;exitDx=0;exitDy=0;entryX=0.5;entryY=0;entryDx=0;entryDy=0;jumpStyle=arc;jumpSize=9;" edge="1" parent="1" source="ISguq8svOf9T5D8Jh1gX-107" target="ISguq8svOf9T5D8Jh1gX-115">
          <mxGeometry relative="1" as="geometry">
            <Array as="points">
              <mxPoint x="610" y="800" />
              <mxPoint x="550" y="800" />
              <mxPoint x="550" y="960" />
              <mxPoint x="610" y="960" />
            </Array>
          </mxGeometry>
        </mxCell>
        <mxCell id="ISguq8svOf9T5D8Jh1gX-107" value="" style="shape=sumEllipse;perimeter=ellipsePerimeter;whiteSpace=wrap;html=1;backgroundOutline=1;" vertex="1" parent="1">
          <mxGeometry x="600" y="760" width="20" height="20" as="geometry" />
        </mxCell>
        <mxCell id="ISguq8svOf9T5D8Jh1gX-128" style="edgeStyle=orthogonalEdgeStyle;rounded=0;orthogonalLoop=1;jettySize=auto;html=1;exitX=1;exitY=0.5;exitDx=0;exitDy=0;entryX=0;entryY=0.5;entryDx=0;entryDy=0;" edge="1" parent="1" source="ISguq8svOf9T5D8Jh1gX-108" target="ISguq8svOf9T5D8Jh1gX-105">
          <mxGeometry relative="1" as="geometry" />
        </mxCell>
        <mxCell id="ISguq8svOf9T5D8Jh1gX-139" style="edgeStyle=orthogonalEdgeStyle;rounded=0;orthogonalLoop=1;jettySize=auto;html=1;exitX=1;exitY=0.5;exitDx=0;exitDy=0;entryX=0.5;entryY=0;entryDx=0;entryDy=0;" edge="1" parent="1" source="ISguq8svOf9T5D8Jh1gX-108" target="ISguq8svOf9T5D8Jh1gX-109">
          <mxGeometry relative="1" as="geometry" />
        </mxCell>
        <mxCell id="ISguq8svOf9T5D8Jh1gX-108" value="D" style="rounded=0;whiteSpace=wrap;html=1;" vertex="1" parent="1">
          <mxGeometry x="680" y="700" width="20" height="20" as="geometry" />
        </mxCell>
        <mxCell id="ISguq8svOf9T5D8Jh1gX-140" style="edgeStyle=orthogonalEdgeStyle;rounded=0;orthogonalLoop=1;jettySize=auto;html=1;exitX=0.5;exitY=1;exitDx=0;exitDy=0;entryX=0.5;entryY=0;entryDx=0;entryDy=0;" edge="1" parent="1" source="ISguq8svOf9T5D8Jh1gX-109" target="ISguq8svOf9T5D8Jh1gX-138">
          <mxGeometry relative="1" as="geometry" />
        </mxCell>
        <mxCell id="ISguq8svOf9T5D8Jh1gX-109" value="" style="shape=sumEllipse;perimeter=ellipsePerimeter;whiteSpace=wrap;html=1;backgroundOutline=1;" vertex="1" parent="1">
          <mxGeometry x="800" y="760" width="20" height="20" as="geometry" />
        </mxCell>
        <mxCell id="ISguq8svOf9T5D8Jh1gX-134" style="edgeStyle=orthogonalEdgeStyle;rounded=0;orthogonalLoop=1;jettySize=auto;html=1;exitX=0.5;exitY=1;exitDx=0;exitDy=0;entryX=0.5;entryY=0;entryDx=0;entryDy=0;" edge="1" parent="1" source="ISguq8svOf9T5D8Jh1gX-110" target="ISguq8svOf9T5D8Jh1gX-118">
          <mxGeometry relative="1" as="geometry" />
        </mxCell>
        <mxCell id="ISguq8svOf9T5D8Jh1gX-156" style="edgeStyle=orthogonalEdgeStyle;rounded=0;orthogonalLoop=1;jettySize=auto;html=1;exitX=0.5;exitY=1;exitDx=0;exitDy=0;entryX=1;entryY=0.5;entryDx=0;entryDy=0;" edge="1" parent="1" source="ISguq8svOf9T5D8Jh1gX-110" target="ISguq8svOf9T5D8Jh1gX-155">
          <mxGeometry relative="1" as="geometry" />
        </mxCell>
        <mxCell id="ISguq8svOf9T5D8Jh1gX-110" value="" style="shape=sumEllipse;perimeter=ellipsePerimeter;whiteSpace=wrap;html=1;backgroundOutline=1;" vertex="1" parent="1">
          <mxGeometry x="1000" y="760" width="20" height="20" as="geometry" />
        </mxCell>
        <mxCell id="ISguq8svOf9T5D8Jh1gX-137" style="edgeStyle=orthogonalEdgeStyle;rounded=0;orthogonalLoop=1;jettySize=auto;html=1;exitX=0.5;exitY=1;exitDx=0;exitDy=0;entryX=0.5;entryY=0;entryDx=0;entryDy=0;" edge="1" parent="1" source="ISguq8svOf9T5D8Jh1gX-112" target="ISguq8svOf9T5D8Jh1gX-114">
          <mxGeometry relative="1" as="geometry" />
        </mxCell>
        <mxCell id="ISguq8svOf9T5D8Jh1gX-112" value="x-1" style="rounded=0;whiteSpace=wrap;html=1;" vertex="1" parent="1">
          <mxGeometry x="600" y="820" width="20" height="20" as="geometry" />
        </mxCell>
        <mxCell id="ISguq8svOf9T5D8Jh1gX-114" value="" style="shape=orEllipse;perimeter=ellipsePerimeter;whiteSpace=wrap;html=1;backgroundOutline=1;" vertex="1" parent="1">
          <mxGeometry x="600" y="900" width="20" height="20" as="geometry" />
        </mxCell>
        <mxCell id="ISguq8svOf9T5D8Jh1gX-148" style="edgeStyle=orthogonalEdgeStyle;rounded=0;orthogonalLoop=1;jettySize=auto;html=1;exitX=1;exitY=0.5;exitDx=0;exitDy=0;entryX=0;entryY=0.5;entryDx=0;entryDy=0;" edge="1" parent="1" source="ISguq8svOf9T5D8Jh1gX-115" target="ISguq8svOf9T5D8Jh1gX-120">
          <mxGeometry relative="1" as="geometry" />
        </mxCell>
        <mxCell id="ISguq8svOf9T5D8Jh1gX-115" value="" style="shape=orEllipse;perimeter=ellipsePerimeter;whiteSpace=wrap;html=1;backgroundOutline=1;" vertex="1" parent="1">
          <mxGeometry x="600" y="1020" width="20" height="20" as="geometry" />
        </mxCell>
        <mxCell id="ISguq8svOf9T5D8Jh1gX-157" style="edgeStyle=orthogonalEdgeStyle;rounded=0;orthogonalLoop=1;jettySize=auto;html=1;exitX=1;exitY=0.5;exitDx=0;exitDy=0;entryX=0;entryY=0.5;entryDx=0;entryDy=0;" edge="1" parent="1" source="ISguq8svOf9T5D8Jh1gX-116" target="ISguq8svOf9T5D8Jh1gX-118">
          <mxGeometry relative="1" as="geometry" />
        </mxCell>
        <mxCell id="ISguq8svOf9T5D8Jh1gX-116" value="" style="shape=orEllipse;perimeter=ellipsePerimeter;whiteSpace=wrap;html=1;backgroundOutline=1;" vertex="1" parent="1">
          <mxGeometry x="800" y="900" width="20" height="20" as="geometry" />
        </mxCell>
        <mxCell id="ISguq8svOf9T5D8Jh1gX-159" style="edgeStyle=orthogonalEdgeStyle;rounded=0;orthogonalLoop=1;jettySize=auto;html=1;exitX=1;exitY=0.5;exitDx=0;exitDy=0;entryX=0;entryY=0.5;entryDx=0;entryDy=0;" edge="1" parent="1" source="ISguq8svOf9T5D8Jh1gX-117" target="ISguq8svOf9T5D8Jh1gX-119">
          <mxGeometry relative="1" as="geometry" />
        </mxCell>
        <mxCell id="ISguq8svOf9T5D8Jh1gX-117" value="" style="shape=orEllipse;perimeter=ellipsePerimeter;whiteSpace=wrap;html=1;backgroundOutline=1;" vertex="1" parent="1">
          <mxGeometry x="800" y="1020" width="20" height="20" as="geometry" />
        </mxCell>
        <mxCell id="ISguq8svOf9T5D8Jh1gX-191" style="edgeStyle=orthogonalEdgeStyle;rounded=0;orthogonalLoop=1;jettySize=auto;html=1;exitX=1;exitY=0.5;exitDx=0;exitDy=0;entryX=0;entryY=0.5;entryDx=0;entryDy=0;" edge="1" parent="1" source="ISguq8svOf9T5D8Jh1gX-118" target="ISguq8svOf9T5D8Jh1gX-180">
          <mxGeometry relative="1" as="geometry" />
        </mxCell>
        <mxCell id="ISguq8svOf9T5D8Jh1gX-118" value="" style="shape=orEllipse;perimeter=ellipsePerimeter;whiteSpace=wrap;html=1;backgroundOutline=1;" vertex="1" parent="1">
          <mxGeometry x="1000" y="900" width="20" height="20" as="geometry" />
        </mxCell>
        <mxCell id="ISguq8svOf9T5D8Jh1gX-193" style="edgeStyle=orthogonalEdgeStyle;rounded=0;orthogonalLoop=1;jettySize=auto;html=1;exitX=1;exitY=0.5;exitDx=0;exitDy=0;entryX=0;entryY=0.5;entryDx=0;entryDy=0;" edge="1" parent="1" source="ISguq8svOf9T5D8Jh1gX-119" target="ISguq8svOf9T5D8Jh1gX-184">
          <mxGeometry relative="1" as="geometry" />
        </mxCell>
        <mxCell id="ISguq8svOf9T5D8Jh1gX-119" value="" style="shape=orEllipse;perimeter=ellipsePerimeter;whiteSpace=wrap;html=1;backgroundOutline=1;" vertex="1" parent="1">
          <mxGeometry x="1000" y="1020" width="20" height="20" as="geometry" />
        </mxCell>
        <mxCell id="ISguq8svOf9T5D8Jh1gX-152" style="edgeStyle=orthogonalEdgeStyle;rounded=0;orthogonalLoop=1;jettySize=auto;html=1;exitX=1;exitY=0.5;exitDx=0;exitDy=0;entryX=0;entryY=0.5;entryDx=0;entryDy=0;" edge="1" parent="1" source="ISguq8svOf9T5D8Jh1gX-120" target="ISguq8svOf9T5D8Jh1gX-117">
          <mxGeometry relative="1" as="geometry" />
        </mxCell>
        <mxCell id="ISguq8svOf9T5D8Jh1gX-120" value="" style="shape=orEllipse;perimeter=ellipsePerimeter;whiteSpace=wrap;html=1;backgroundOutline=1;" vertex="1" parent="1">
          <mxGeometry x="680" y="1020" width="20" height="20" as="geometry" />
        </mxCell>
        <mxCell id="ISguq8svOf9T5D8Jh1gX-129" style="edgeStyle=orthogonalEdgeStyle;rounded=0;orthogonalLoop=1;jettySize=auto;html=1;exitX=0;exitY=0.5;exitDx=0;exitDy=0;entryX=1;entryY=0.5;entryDx=0;entryDy=0;" edge="1" parent="1" source="ISguq8svOf9T5D8Jh1gX-121" target="ISguq8svOf9T5D8Jh1gX-106">
          <mxGeometry relative="1" as="geometry" />
        </mxCell>
        <mxCell id="ISguq8svOf9T5D8Jh1gX-121" value="0.5" style="text;html=1;align=center;verticalAlign=middle;whiteSpace=wrap;rounded=0;" vertex="1" parent="1">
          <mxGeometry x="440" y="760" width="20" height="20" as="geometry" />
        </mxCell>
        <mxCell id="ISguq8svOf9T5D8Jh1gX-130" style="edgeStyle=orthogonalEdgeStyle;rounded=0;orthogonalLoop=1;jettySize=auto;html=1;exitX=0;exitY=0.5;exitDx=0;exitDy=0;entryX=1;entryY=0.5;entryDx=0;entryDy=0;" edge="1" parent="1" source="ISguq8svOf9T5D8Jh1gX-122" target="ISguq8svOf9T5D8Jh1gX-107">
          <mxGeometry relative="1" as="geometry" />
        </mxCell>
        <mxCell id="ISguq8svOf9T5D8Jh1gX-122" value="0.5" style="text;html=1;align=center;verticalAlign=middle;whiteSpace=wrap;rounded=0;" vertex="1" parent="1">
          <mxGeometry x="640" y="760" width="20" height="20" as="geometry" />
        </mxCell>
        <mxCell id="ISguq8svOf9T5D8Jh1gX-131" style="edgeStyle=orthogonalEdgeStyle;rounded=0;orthogonalLoop=1;jettySize=auto;html=1;exitX=0;exitY=0.5;exitDx=0;exitDy=0;entryX=1;entryY=0.5;entryDx=0;entryDy=0;" edge="1" parent="1" source="ISguq8svOf9T5D8Jh1gX-123" target="ISguq8svOf9T5D8Jh1gX-109">
          <mxGeometry relative="1" as="geometry" />
        </mxCell>
        <mxCell id="ISguq8svOf9T5D8Jh1gX-123" value="0.5" style="text;html=1;align=center;verticalAlign=middle;whiteSpace=wrap;rounded=0;" vertex="1" parent="1">
          <mxGeometry x="840" y="760" width="20" height="20" as="geometry" />
        </mxCell>
        <mxCell id="ISguq8svOf9T5D8Jh1gX-132" style="edgeStyle=orthogonalEdgeStyle;rounded=0;orthogonalLoop=1;jettySize=auto;html=1;exitX=0;exitY=0.5;exitDx=0;exitDy=0;entryX=1;entryY=0.5;entryDx=0;entryDy=0;" edge="1" parent="1" source="ISguq8svOf9T5D8Jh1gX-124" target="ISguq8svOf9T5D8Jh1gX-110">
          <mxGeometry relative="1" as="geometry" />
        </mxCell>
        <mxCell id="ISguq8svOf9T5D8Jh1gX-124" value="0.5" style="text;html=1;align=center;verticalAlign=middle;whiteSpace=wrap;rounded=0;" vertex="1" parent="1">
          <mxGeometry x="1040" y="760" width="20" height="20" as="geometry" />
        </mxCell>
        <mxCell id="ISguq8svOf9T5D8Jh1gX-126" style="edgeStyle=orthogonalEdgeStyle;rounded=0;orthogonalLoop=1;jettySize=auto;html=1;exitX=1;exitY=0.5;exitDx=0;exitDy=0;entryX=0;entryY=0.5;entryDx=0;entryDy=0;" edge="1" parent="1" source="ISguq8svOf9T5D8Jh1gX-125" target="ISguq8svOf9T5D8Jh1gX-104">
          <mxGeometry relative="1" as="geometry" />
        </mxCell>
        <mxCell id="ISguq8svOf9T5D8Jh1gX-142" style="edgeStyle=orthogonalEdgeStyle;rounded=0;orthogonalLoop=1;jettySize=auto;html=1;exitX=1;exitY=0.5;exitDx=0;exitDy=0;entryX=0.5;entryY=0;entryDx=0;entryDy=0;" edge="1" parent="1" source="ISguq8svOf9T5D8Jh1gX-125" target="ISguq8svOf9T5D8Jh1gX-106">
          <mxGeometry relative="1" as="geometry" />
        </mxCell>
        <mxCell id="ISguq8svOf9T5D8Jh1gX-125" value="x(m + 2)" style="text;html=1;align=center;verticalAlign=middle;whiteSpace=wrap;rounded=0;" vertex="1" parent="1">
          <mxGeometry x="280" y="695" width="65" height="30" as="geometry" />
        </mxCell>
        <mxCell id="ISguq8svOf9T5D8Jh1gX-141" style="edgeStyle=orthogonalEdgeStyle;rounded=0;orthogonalLoop=1;jettySize=auto;html=1;exitX=0.5;exitY=1;exitDx=0;exitDy=0;entryX=0.5;entryY=0;entryDx=0;entryDy=0;" edge="1" parent="1" source="ISguq8svOf9T5D8Jh1gX-138" target="ISguq8svOf9T5D8Jh1gX-116">
          <mxGeometry relative="1" as="geometry" />
        </mxCell>
        <mxCell id="ISguq8svOf9T5D8Jh1gX-153" style="edgeStyle=orthogonalEdgeStyle;rounded=0;orthogonalLoop=1;jettySize=auto;html=1;exitX=0.5;exitY=1;exitDx=0;exitDy=0;entryX=0.5;entryY=0;entryDx=0;entryDy=0;jumpStyle=arc;jumpSize=10;" edge="1" parent="1" source="ISguq8svOf9T5D8Jh1gX-138" target="ISguq8svOf9T5D8Jh1gX-117">
          <mxGeometry relative="1" as="geometry">
            <Array as="points">
              <mxPoint x="810" y="880" />
              <mxPoint x="760" y="880" />
              <mxPoint x="760" y="960" />
              <mxPoint x="810" y="960" />
            </Array>
          </mxGeometry>
        </mxCell>
        <mxCell id="ISguq8svOf9T5D8Jh1gX-138" value="x-1" style="rounded=0;whiteSpace=wrap;html=1;" vertex="1" parent="1">
          <mxGeometry x="800" y="820" width="20" height="20" as="geometry" />
        </mxCell>
        <mxCell id="ISguq8svOf9T5D8Jh1gX-146" style="edgeStyle=orthogonalEdgeStyle;rounded=0;orthogonalLoop=1;jettySize=auto;html=1;exitX=0.5;exitY=1;exitDx=0;exitDy=0;entryX=0;entryY=0.5;entryDx=0;entryDy=0;" edge="1" parent="1" source="ISguq8svOf9T5D8Jh1gX-143" target="ISguq8svOf9T5D8Jh1gX-115">
          <mxGeometry relative="1" as="geometry" />
        </mxCell>
        <mxCell id="ISguq8svOf9T5D8Jh1gX-143" value="x-1" style="rounded=0;whiteSpace=wrap;html=1;" vertex="1" parent="1">
          <mxGeometry x="400" y="960" width="20" height="20" as="geometry" />
        </mxCell>
        <mxCell id="ISguq8svOf9T5D8Jh1gX-158" style="edgeStyle=orthogonalEdgeStyle;rounded=0;orthogonalLoop=1;jettySize=auto;html=1;exitX=0;exitY=0.5;exitDx=0;exitDy=0;entryX=0.5;entryY=0;entryDx=0;entryDy=0;jumpStyle=arc;jumpSize=10;" edge="1" parent="1" source="ISguq8svOf9T5D8Jh1gX-155" target="ISguq8svOf9T5D8Jh1gX-119">
          <mxGeometry relative="1" as="geometry">
            <Array as="points">
              <mxPoint x="940" y="830" />
              <mxPoint x="940" y="960" />
              <mxPoint x="1010" y="960" />
            </Array>
          </mxGeometry>
        </mxCell>
        <mxCell id="ISguq8svOf9T5D8Jh1gX-155" value="x-1" style="rounded=0;whiteSpace=wrap;html=1;" vertex="1" parent="1">
          <mxGeometry x="960" y="820" width="20" height="20" as="geometry" />
        </mxCell>
        <mxCell id="ISguq8svOf9T5D8Jh1gX-161" value="" style="ellipse;whiteSpace=wrap;html=1;aspect=fixed;gradientColor=none;fillColor=#000000;" vertex="1" parent="1">
          <mxGeometry x="445" y="-20" width="10" height="10" as="geometry" />
        </mxCell>
        <mxCell id="ISguq8svOf9T5D8Jh1gX-165" value="" style="ellipse;whiteSpace=wrap;html=1;aspect=fixed;gradientColor=none;fillColor=#000000;" vertex="1" parent="1">
          <mxGeometry x="445" y="65" width="10" height="10" as="geometry" />
        </mxCell>
        <mxCell id="ISguq8svOf9T5D8Jh1gX-167" value="" style="ellipse;whiteSpace=wrap;html=1;aspect=fixed;gradientColor=none;fillColor=#000000;" vertex="1" parent="1">
          <mxGeometry x="445" y="184" width="10" height="10" as="geometry" />
        </mxCell>
        <mxCell id="ISguq8svOf9T5D8Jh1gX-168" value="" style="ellipse;whiteSpace=wrap;html=1;aspect=fixed;gradientColor=none;fillColor=#000000;" vertex="1" parent="1">
          <mxGeometry x="445" y="345" width="10" height="10" as="geometry" />
        </mxCell>
        <mxCell id="ISguq8svOf9T5D8Jh1gX-169" value="" style="ellipse;whiteSpace=wrap;html=1;aspect=fixed;gradientColor=none;fillColor=#000000;" vertex="1" parent="1">
          <mxGeometry x="805" y="64" width="10" height="10" as="geometry" />
        </mxCell>
        <mxCell id="ISguq8svOf9T5D8Jh1gX-170" value="" style="ellipse;whiteSpace=wrap;html=1;aspect=fixed;gradientColor=none;fillColor=#000000;" vertex="1" parent="1">
          <mxGeometry x="805" y="184" width="10" height="10" as="geometry" />
        </mxCell>
        <mxCell id="ISguq8svOf9T5D8Jh1gX-171" value="" style="ellipse;whiteSpace=wrap;html=1;aspect=fixed;gradientColor=none;fillColor=#000000;" vertex="1" parent="1">
          <mxGeometry x="805" y="225" width="10" height="10" as="geometry" />
        </mxCell>
        <mxCell id="ISguq8svOf9T5D8Jh1gX-172" value="" style="ellipse;whiteSpace=wrap;html=1;aspect=fixed;gradientColor=none;fillColor=#000000;" vertex="1" parent="1">
          <mxGeometry x="805" y="345" width="10" height="10" as="geometry" />
        </mxCell>
        <mxCell id="ISguq8svOf9T5D8Jh1gX-173" value="" style="ellipse;whiteSpace=wrap;html=1;aspect=fixed;gradientColor=none;fillColor=#000000;" vertex="1" parent="1">
          <mxGeometry x="605" y="705" width="10" height="10" as="geometry" />
        </mxCell>
        <mxCell id="ISguq8svOf9T5D8Jh1gX-174" value="" style="ellipse;whiteSpace=wrap;html=1;aspect=fixed;gradientColor=none;fillColor=#000000;" vertex="1" parent="1">
          <mxGeometry x="605" y="734" width="10" height="10" as="geometry" />
        </mxCell>
        <mxCell id="ISguq8svOf9T5D8Jh1gX-175" value="" style="ellipse;whiteSpace=wrap;html=1;aspect=fixed;gradientColor=none;fillColor=#000000;" vertex="1" parent="1">
          <mxGeometry x="605" y="795" width="10" height="10" as="geometry" />
        </mxCell>
        <mxCell id="ISguq8svOf9T5D8Jh1gX-176" value="" style="ellipse;whiteSpace=wrap;html=1;aspect=fixed;gradientColor=none;fillColor=#000000;" vertex="1" parent="1">
          <mxGeometry x="405" y="905" width="10" height="10" as="geometry" />
        </mxCell>
        <mxCell id="ISguq8svOf9T5D8Jh1gX-177" value="" style="ellipse;whiteSpace=wrap;html=1;aspect=fixed;gradientColor=none;fillColor=#000000;" vertex="1" parent="1">
          <mxGeometry x="805" y="705" width="10" height="10" as="geometry" />
        </mxCell>
        <mxCell id="ISguq8svOf9T5D8Jh1gX-178" value="" style="ellipse;whiteSpace=wrap;html=1;aspect=fixed;gradientColor=none;fillColor=#000000;" vertex="1" parent="1">
          <mxGeometry x="805" y="875" width="10" height="10" as="geometry" />
        </mxCell>
        <mxCell id="ISguq8svOf9T5D8Jh1gX-179" value="" style="ellipse;whiteSpace=wrap;html=1;aspect=fixed;gradientColor=none;fillColor=#000000;" vertex="1" parent="1">
          <mxGeometry x="1005" y="825" width="10" height="10" as="geometry" />
        </mxCell>
        <mxCell id="ISguq8svOf9T5D8Jh1gX-192" style="edgeStyle=orthogonalEdgeStyle;rounded=0;orthogonalLoop=1;jettySize=auto;html=1;exitX=0.5;exitY=1;exitDx=0;exitDy=0;entryX=0.5;entryY=0;entryDx=0;entryDy=0;" edge="1" parent="1" source="ISguq8svOf9T5D8Jh1gX-180" target="ISguq8svOf9T5D8Jh1gX-184">
          <mxGeometry relative="1" as="geometry" />
        </mxCell>
        <mxCell id="ISguq8svOf9T5D8Jh1gX-180" value="" style="shape=sumEllipse;perimeter=ellipsePerimeter;whiteSpace=wrap;html=1;backgroundOutline=1;" vertex="1" parent="1">
          <mxGeometry x="1100" y="900" width="20" height="20" as="geometry" />
        </mxCell>
        <mxCell id="ISguq8svOf9T5D8Jh1gX-183" style="edgeStyle=orthogonalEdgeStyle;rounded=0;orthogonalLoop=1;jettySize=auto;html=1;exitX=0;exitY=0.5;exitDx=0;exitDy=0;entryX=1;entryY=0.5;entryDx=0;entryDy=0;" edge="1" parent="1" source="ISguq8svOf9T5D8Jh1gX-182" target="ISguq8svOf9T5D8Jh1gX-180">
          <mxGeometry relative="1" as="geometry" />
        </mxCell>
        <mxCell id="ISguq8svOf9T5D8Jh1gX-182" value="u" style="text;html=1;align=center;verticalAlign=middle;whiteSpace=wrap;rounded=0;" vertex="1" parent="1">
          <mxGeometry x="1140" y="895" width="25" height="30" as="geometry" />
        </mxCell>
        <mxCell id="ISguq8svOf9T5D8Jh1gX-194" style="edgeStyle=orthogonalEdgeStyle;rounded=0;orthogonalLoop=1;jettySize=auto;html=1;exitX=0.5;exitY=1;exitDx=0;exitDy=0;entryX=0.5;entryY=0;entryDx=0;entryDy=0;" edge="1" parent="1" source="ISguq8svOf9T5D8Jh1gX-184" target="ISguq8svOf9T5D8Jh1gX-185">
          <mxGeometry relative="1" as="geometry" />
        </mxCell>
        <mxCell id="ISguq8svOf9T5D8Jh1gX-184" value="" style="shape=orEllipse;perimeter=ellipsePerimeter;whiteSpace=wrap;html=1;backgroundOutline=1;" vertex="1" parent="1">
          <mxGeometry x="1100" y="1020" width="20" height="20" as="geometry" />
        </mxCell>
        <mxCell id="ISguq8svOf9T5D8Jh1gX-195" style="edgeStyle=orthogonalEdgeStyle;rounded=0;orthogonalLoop=1;jettySize=auto;html=1;exitX=0.5;exitY=1;exitDx=0;exitDy=0;entryX=0.5;entryY=0;entryDx=0;entryDy=0;" edge="1" parent="1" source="ISguq8svOf9T5D8Jh1gX-185" target="ISguq8svOf9T5D8Jh1gX-188">
          <mxGeometry relative="1" as="geometry" />
        </mxCell>
        <mxCell id="ISguq8svOf9T5D8Jh1gX-185" value="" style="shape=sumEllipse;perimeter=ellipsePerimeter;whiteSpace=wrap;html=1;backgroundOutline=1;" vertex="1" parent="1">
          <mxGeometry x="1100" y="1095" width="20" height="20" as="geometry" />
        </mxCell>
        <mxCell id="ISguq8svOf9T5D8Jh1gX-186" style="edgeStyle=orthogonalEdgeStyle;rounded=0;orthogonalLoop=1;jettySize=auto;html=1;exitX=0;exitY=0.5;exitDx=0;exitDy=0;entryX=1;entryY=0.5;entryDx=0;entryDy=0;" edge="1" parent="1" source="ISguq8svOf9T5D8Jh1gX-187" target="ISguq8svOf9T5D8Jh1gX-185">
          <mxGeometry relative="1" as="geometry" />
        </mxCell>
        <mxCell id="ISguq8svOf9T5D8Jh1gX-187" value="u" style="text;html=1;align=center;verticalAlign=middle;whiteSpace=wrap;rounded=0;" vertex="1" parent="1">
          <mxGeometry x="1142" y="1090" width="25" height="30" as="geometry" />
        </mxCell>
        <mxCell id="ISguq8svOf9T5D8Jh1gX-196" style="edgeStyle=orthogonalEdgeStyle;rounded=0;orthogonalLoop=1;jettySize=auto;html=1;exitX=0.5;exitY=1;exitDx=0;exitDy=0;" edge="1" parent="1" source="ISguq8svOf9T5D8Jh1gX-188">
          <mxGeometry relative="1" as="geometry">
            <mxPoint x="1110" y="1210" as="targetPoint" />
          </mxGeometry>
        </mxCell>
        <mxCell id="ISguq8svOf9T5D8Jh1gX-188" value="" style="shape=orEllipse;perimeter=ellipsePerimeter;whiteSpace=wrap;html=1;backgroundOutline=1;" vertex="1" parent="1">
          <mxGeometry x="1100" y="1160" width="20" height="20" as="geometry" />
        </mxCell>
        <mxCell id="ISguq8svOf9T5D8Jh1gX-189" style="edgeStyle=orthogonalEdgeStyle;rounded=0;orthogonalLoop=1;jettySize=auto;html=1;exitX=1;exitY=0.5;exitDx=0;exitDy=0;entryX=0;entryY=0.5;entryDx=0;entryDy=0;jumpStyle=arc;jumpSize=10;" edge="1" parent="1" source="ISguq8svOf9T5D8Jh1gX-108" target="ISguq8svOf9T5D8Jh1gX-188">
          <mxGeometry relative="1" as="geometry">
            <Array as="points">
              <mxPoint x="860" y="710" />
              <mxPoint x="860" y="1170" />
            </Array>
          </mxGeometry>
        </mxCell>
        <mxCell id="ISguq8svOf9T5D8Jh1gX-190" value="" style="ellipse;whiteSpace=wrap;html=1;aspect=fixed;gradientColor=none;fillColor=#000000;" vertex="1" parent="1">
          <mxGeometry x="855" y="705" width="10" height="10" as="geometry" />
        </mxCell>
        <mxCell id="ISguq8svOf9T5D8Jh1gX-197" style="edgeStyle=orthogonalEdgeStyle;rounded=0;orthogonalLoop=1;jettySize=auto;html=1;exitX=1;exitY=0.5;exitDx=0;exitDy=0;entryX=0;entryY=0.5;entryDx=0;entryDy=0;jumpStyle=arc;" edge="1" parent="1" source="ISguq8svOf9T5D8Jh1gX-220" target="ISguq8svOf9T5D8Jh1gX-224">
          <mxGeometry relative="1" as="geometry" />
        </mxCell>
        <mxCell id="ISguq8svOf9T5D8Jh1gX-198" style="edgeStyle=orthogonalEdgeStyle;rounded=0;orthogonalLoop=1;jettySize=auto;html=1;exitX=1;exitY=0.5;exitDx=0;exitDy=0;entryX=0;entryY=0.5;entryDx=0;entryDy=0;" edge="1" parent="1" source="ISguq8svOf9T5D8Jh1gX-201" target="ISguq8svOf9T5D8Jh1gX-212">
          <mxGeometry relative="1" as="geometry" />
        </mxCell>
        <mxCell id="ISguq8svOf9T5D8Jh1gX-199" style="edgeStyle=orthogonalEdgeStyle;rounded=0;orthogonalLoop=1;jettySize=auto;html=1;exitX=1;exitY=0.5;exitDx=0;exitDy=0;entryX=0.5;entryY=0;entryDx=0;entryDy=0;" edge="1" parent="1" source="ISguq8svOf9T5D8Jh1gX-201" target="ISguq8svOf9T5D8Jh1gX-209">
          <mxGeometry relative="1" as="geometry" />
        </mxCell>
        <mxCell id="ISguq8svOf9T5D8Jh1gX-200" style="edgeStyle=orthogonalEdgeStyle;rounded=0;orthogonalLoop=1;jettySize=auto;html=1;exitX=1;exitY=0.5;exitDx=0;exitDy=0;entryX=0.5;entryY=0;entryDx=0;entryDy=0;jumpStyle=arc;jumpSize=9;" edge="1" parent="1" source="ISguq8svOf9T5D8Jh1gX-201" target="ISguq8svOf9T5D8Jh1gX-232">
          <mxGeometry relative="1" as="geometry">
            <Array as="points">
              <mxPoint x="590" y="1315" />
              <mxPoint x="590" y="1345" />
              <mxPoint x="670" y="1345" />
            </Array>
          </mxGeometry>
        </mxCell>
        <mxCell id="ISguq8svOf9T5D8Jh1gX-201" value="D" style="rounded=0;whiteSpace=wrap;html=1;" vertex="1" parent="1">
          <mxGeometry x="460" y="1305" width="20" height="20" as="geometry" />
        </mxCell>
        <mxCell id="ISguq8svOf9T5D8Jh1gX-202" style="edgeStyle=orthogonalEdgeStyle;rounded=0;orthogonalLoop=1;jettySize=auto;html=1;exitX=1;exitY=0.5;exitDx=0;exitDy=0;entryX=0.5;entryY=0;entryDx=0;entryDy=0;" edge="1" parent="1" source="ISguq8svOf9T5D8Jh1gX-203" target="ISguq8svOf9T5D8Jh1gX-217">
          <mxGeometry relative="1" as="geometry" />
        </mxCell>
        <mxCell id="ISguq8svOf9T5D8Jh1gX-203" value="D" style="rounded=0;whiteSpace=wrap;html=1;" vertex="1" parent="1">
          <mxGeometry x="860" y="1305" width="20" height="20" as="geometry" />
        </mxCell>
        <mxCell id="ISguq8svOf9T5D8Jh1gX-204" style="edgeStyle=orthogonalEdgeStyle;rounded=0;orthogonalLoop=1;jettySize=auto;html=1;exitX=0.5;exitY=1;exitDx=0;exitDy=0;entryX=0;entryY=0.5;entryDx=0;entryDy=0;" edge="1" parent="1" source="ISguq8svOf9T5D8Jh1gX-206" target="ISguq8svOf9T5D8Jh1gX-220">
          <mxGeometry relative="1" as="geometry" />
        </mxCell>
        <mxCell id="ISguq8svOf9T5D8Jh1gX-206" value="" style="shape=sumEllipse;perimeter=ellipsePerimeter;whiteSpace=wrap;html=1;backgroundOutline=1;" vertex="1" parent="1">
          <mxGeometry x="380" y="1365" width="20" height="20" as="geometry" />
        </mxCell>
        <mxCell id="ISguq8svOf9T5D8Jh1gX-207" style="edgeStyle=orthogonalEdgeStyle;rounded=0;orthogonalLoop=1;jettySize=auto;html=1;exitX=0.5;exitY=1;exitDx=0;exitDy=0;entryX=0.5;entryY=0;entryDx=0;entryDy=0;" edge="1" parent="1" source="ISguq8svOf9T5D8Jh1gX-209" target="ISguq8svOf9T5D8Jh1gX-219">
          <mxGeometry relative="1" as="geometry" />
        </mxCell>
        <mxCell id="ISguq8svOf9T5D8Jh1gX-209" value="" style="shape=sumEllipse;perimeter=ellipsePerimeter;whiteSpace=wrap;html=1;backgroundOutline=1;" vertex="1" parent="1">
          <mxGeometry x="580" y="1365" width="20" height="20" as="geometry" />
        </mxCell>
        <mxCell id="ISguq8svOf9T5D8Jh1gX-210" style="edgeStyle=orthogonalEdgeStyle;rounded=0;orthogonalLoop=1;jettySize=auto;html=1;exitX=1;exitY=0.5;exitDx=0;exitDy=0;entryX=0;entryY=0.5;entryDx=0;entryDy=0;" edge="1" parent="1" source="ISguq8svOf9T5D8Jh1gX-212" target="ISguq8svOf9T5D8Jh1gX-203">
          <mxGeometry relative="1" as="geometry" />
        </mxCell>
        <mxCell id="ISguq8svOf9T5D8Jh1gX-211" style="edgeStyle=orthogonalEdgeStyle;rounded=0;orthogonalLoop=1;jettySize=auto;html=1;exitX=1;exitY=0.5;exitDx=0;exitDy=0;entryX=0.5;entryY=0;entryDx=0;entryDy=0;" edge="1" parent="1" source="ISguq8svOf9T5D8Jh1gX-212" target="ISguq8svOf9T5D8Jh1gX-214">
          <mxGeometry relative="1" as="geometry" />
        </mxCell>
        <mxCell id="ISguq8svOf9T5D8Jh1gX-212" value="D" style="rounded=0;whiteSpace=wrap;html=1;" vertex="1" parent="1">
          <mxGeometry x="660" y="1305" width="20" height="20" as="geometry" />
        </mxCell>
        <mxCell id="ISguq8svOf9T5D8Jh1gX-213" style="edgeStyle=orthogonalEdgeStyle;rounded=0;orthogonalLoop=1;jettySize=auto;html=1;exitX=0.5;exitY=1;exitDx=0;exitDy=0;entryX=0.5;entryY=0;entryDx=0;entryDy=0;" edge="1" parent="1" source="ISguq8svOf9T5D8Jh1gX-214" target="ISguq8svOf9T5D8Jh1gX-246">
          <mxGeometry relative="1" as="geometry" />
        </mxCell>
        <mxCell id="ISguq8svOf9T5D8Jh1gX-214" value="" style="shape=sumEllipse;perimeter=ellipsePerimeter;whiteSpace=wrap;html=1;backgroundOutline=1;" vertex="1" parent="1">
          <mxGeometry x="780" y="1365" width="20" height="20" as="geometry" />
        </mxCell>
        <mxCell id="ISguq8svOf9T5D8Jh1gX-215" style="edgeStyle=orthogonalEdgeStyle;rounded=0;orthogonalLoop=1;jettySize=auto;html=1;exitX=0.5;exitY=1;exitDx=0;exitDy=0;entryX=0.5;entryY=0;entryDx=0;entryDy=0;" edge="1" parent="1" source="ISguq8svOf9T5D8Jh1gX-217" target="ISguq8svOf9T5D8Jh1gX-228">
          <mxGeometry relative="1" as="geometry" />
        </mxCell>
        <mxCell id="ISguq8svOf9T5D8Jh1gX-216" style="edgeStyle=orthogonalEdgeStyle;rounded=0;orthogonalLoop=1;jettySize=auto;html=1;exitX=0.5;exitY=1;exitDx=0;exitDy=0;entryX=1;entryY=0.5;entryDx=0;entryDy=0;" edge="1" parent="1" source="ISguq8svOf9T5D8Jh1gX-217" target="ISguq8svOf9T5D8Jh1gX-250">
          <mxGeometry relative="1" as="geometry" />
        </mxCell>
        <mxCell id="ISguq8svOf9T5D8Jh1gX-217" value="" style="shape=sumEllipse;perimeter=ellipsePerimeter;whiteSpace=wrap;html=1;backgroundOutline=1;" vertex="1" parent="1">
          <mxGeometry x="980" y="1365" width="20" height="20" as="geometry" />
        </mxCell>
        <mxCell id="ISguq8svOf9T5D8Jh1gX-218" style="edgeStyle=orthogonalEdgeStyle;rounded=0;orthogonalLoop=1;jettySize=auto;html=1;exitX=0.5;exitY=1;exitDx=0;exitDy=0;entryX=0.5;entryY=0;entryDx=0;entryDy=0;" edge="1" parent="1" source="ISguq8svOf9T5D8Jh1gX-219" target="ISguq8svOf9T5D8Jh1gX-220">
          <mxGeometry relative="1" as="geometry" />
        </mxCell>
        <mxCell id="ISguq8svOf9T5D8Jh1gX-219" value="x-1" style="rounded=0;whiteSpace=wrap;html=1;" vertex="1" parent="1">
          <mxGeometry x="580" y="1425" width="20" height="20" as="geometry" />
        </mxCell>
        <mxCell id="ISguq8svOf9T5D8Jh1gX-274" style="edgeStyle=orthogonalEdgeStyle;rounded=0;orthogonalLoop=1;jettySize=auto;html=1;exitX=1;exitY=0.5;exitDx=0;exitDy=0;entryX=0.5;entryY=0;entryDx=0;entryDy=0;" edge="1" parent="1" source="ISguq8svOf9T5D8Jh1gX-220" target="ISguq8svOf9T5D8Jh1gX-248">
          <mxGeometry relative="1" as="geometry" />
        </mxCell>
        <mxCell id="ISguq8svOf9T5D8Jh1gX-220" value="" style="shape=orEllipse;perimeter=ellipsePerimeter;whiteSpace=wrap;html=1;backgroundOutline=1;" vertex="1" parent="1">
          <mxGeometry x="580" y="1505" width="20" height="20" as="geometry" />
        </mxCell>
        <mxCell id="ISguq8svOf9T5D8Jh1gX-223" style="edgeStyle=orthogonalEdgeStyle;rounded=0;orthogonalLoop=1;jettySize=auto;html=1;exitX=1;exitY=0.5;exitDx=0;exitDy=0;entryX=0;entryY=0.5;entryDx=0;entryDy=0;" edge="1" parent="1" source="ISguq8svOf9T5D8Jh1gX-224" target="ISguq8svOf9T5D8Jh1gX-228">
          <mxGeometry relative="1" as="geometry" />
        </mxCell>
        <mxCell id="ISguq8svOf9T5D8Jh1gX-224" value="" style="shape=orEllipse;perimeter=ellipsePerimeter;whiteSpace=wrap;html=1;backgroundOutline=1;" vertex="1" parent="1">
          <mxGeometry x="780" y="1505" width="20" height="20" as="geometry" />
        </mxCell>
        <mxCell id="ISguq8svOf9T5D8Jh1gX-225" style="edgeStyle=orthogonalEdgeStyle;rounded=0;orthogonalLoop=1;jettySize=auto;html=1;exitX=1;exitY=0.5;exitDx=0;exitDy=0;entryX=0;entryY=0.5;entryDx=0;entryDy=0;" edge="1" parent="1" source="ISguq8svOf9T5D8Jh1gX-226" target="ISguq8svOf9T5D8Jh1gX-230">
          <mxGeometry relative="1" as="geometry" />
        </mxCell>
        <mxCell id="ISguq8svOf9T5D8Jh1gX-226" value="" style="shape=orEllipse;perimeter=ellipsePerimeter;whiteSpace=wrap;html=1;backgroundOutline=1;" vertex="1" parent="1">
          <mxGeometry x="780" y="1625" width="20" height="20" as="geometry" />
        </mxCell>
        <mxCell id="ISguq8svOf9T5D8Jh1gX-227" style="edgeStyle=orthogonalEdgeStyle;rounded=0;orthogonalLoop=1;jettySize=auto;html=1;exitX=1;exitY=0.5;exitDx=0;exitDy=0;entryX=0;entryY=0.5;entryDx=0;entryDy=0;" edge="1" parent="1" source="ISguq8svOf9T5D8Jh1gX-228" target="ISguq8svOf9T5D8Jh1gX-259">
          <mxGeometry relative="1" as="geometry" />
        </mxCell>
        <mxCell id="ISguq8svOf9T5D8Jh1gX-228" value="" style="shape=orEllipse;perimeter=ellipsePerimeter;whiteSpace=wrap;html=1;backgroundOutline=1;" vertex="1" parent="1">
          <mxGeometry x="980" y="1505" width="20" height="20" as="geometry" />
        </mxCell>
        <mxCell id="ISguq8svOf9T5D8Jh1gX-229" style="edgeStyle=orthogonalEdgeStyle;rounded=0;orthogonalLoop=1;jettySize=auto;html=1;exitX=1;exitY=0.5;exitDx=0;exitDy=0;entryX=0;entryY=0.5;entryDx=0;entryDy=0;" edge="1" parent="1" source="ISguq8svOf9T5D8Jh1gX-230" target="ISguq8svOf9T5D8Jh1gX-263">
          <mxGeometry relative="1" as="geometry" />
        </mxCell>
        <mxCell id="ISguq8svOf9T5D8Jh1gX-230" value="" style="shape=orEllipse;perimeter=ellipsePerimeter;whiteSpace=wrap;html=1;backgroundOutline=1;" vertex="1" parent="1">
          <mxGeometry x="980" y="1625" width="20" height="20" as="geometry" />
        </mxCell>
        <mxCell id="ISguq8svOf9T5D8Jh1gX-231" style="edgeStyle=orthogonalEdgeStyle;rounded=0;orthogonalLoop=1;jettySize=auto;html=1;exitX=1;exitY=0.5;exitDx=0;exitDy=0;entryX=0;entryY=0.5;entryDx=0;entryDy=0;" edge="1" parent="1" source="ISguq8svOf9T5D8Jh1gX-232" target="ISguq8svOf9T5D8Jh1gX-226">
          <mxGeometry relative="1" as="geometry" />
        </mxCell>
        <mxCell id="ISguq8svOf9T5D8Jh1gX-232" value="" style="shape=orEllipse;perimeter=ellipsePerimeter;whiteSpace=wrap;html=1;backgroundOutline=1;" vertex="1" parent="1">
          <mxGeometry x="660" y="1625" width="20" height="20" as="geometry" />
        </mxCell>
        <mxCell id="ISguq8svOf9T5D8Jh1gX-233" style="edgeStyle=orthogonalEdgeStyle;rounded=0;orthogonalLoop=1;jettySize=auto;html=1;exitX=0;exitY=0.5;exitDx=0;exitDy=0;entryX=1;entryY=0.5;entryDx=0;entryDy=0;" edge="1" parent="1" source="ISguq8svOf9T5D8Jh1gX-234" target="ISguq8svOf9T5D8Jh1gX-206">
          <mxGeometry relative="1" as="geometry" />
        </mxCell>
        <mxCell id="ISguq8svOf9T5D8Jh1gX-234" value="0.5" style="text;html=1;align=center;verticalAlign=middle;whiteSpace=wrap;rounded=0;" vertex="1" parent="1">
          <mxGeometry x="420" y="1365" width="20" height="20" as="geometry" />
        </mxCell>
        <mxCell id="ISguq8svOf9T5D8Jh1gX-235" style="edgeStyle=orthogonalEdgeStyle;rounded=0;orthogonalLoop=1;jettySize=auto;html=1;exitX=0;exitY=0.5;exitDx=0;exitDy=0;entryX=1;entryY=0.5;entryDx=0;entryDy=0;" edge="1" parent="1" source="ISguq8svOf9T5D8Jh1gX-236" target="ISguq8svOf9T5D8Jh1gX-209">
          <mxGeometry relative="1" as="geometry" />
        </mxCell>
        <mxCell id="ISguq8svOf9T5D8Jh1gX-236" value="0.5" style="text;html=1;align=center;verticalAlign=middle;whiteSpace=wrap;rounded=0;" vertex="1" parent="1">
          <mxGeometry x="620" y="1365" width="20" height="20" as="geometry" />
        </mxCell>
        <mxCell id="ISguq8svOf9T5D8Jh1gX-237" style="edgeStyle=orthogonalEdgeStyle;rounded=0;orthogonalLoop=1;jettySize=auto;html=1;exitX=0;exitY=0.5;exitDx=0;exitDy=0;entryX=1;entryY=0.5;entryDx=0;entryDy=0;" edge="1" parent="1" source="ISguq8svOf9T5D8Jh1gX-238" target="ISguq8svOf9T5D8Jh1gX-214">
          <mxGeometry relative="1" as="geometry" />
        </mxCell>
        <mxCell id="ISguq8svOf9T5D8Jh1gX-238" value="0.5" style="text;html=1;align=center;verticalAlign=middle;whiteSpace=wrap;rounded=0;" vertex="1" parent="1">
          <mxGeometry x="820" y="1365" width="20" height="20" as="geometry" />
        </mxCell>
        <mxCell id="ISguq8svOf9T5D8Jh1gX-239" style="edgeStyle=orthogonalEdgeStyle;rounded=0;orthogonalLoop=1;jettySize=auto;html=1;exitX=0;exitY=0.5;exitDx=0;exitDy=0;entryX=1;entryY=0.5;entryDx=0;entryDy=0;" edge="1" parent="1" source="ISguq8svOf9T5D8Jh1gX-240" target="ISguq8svOf9T5D8Jh1gX-217">
          <mxGeometry relative="1" as="geometry" />
        </mxCell>
        <mxCell id="ISguq8svOf9T5D8Jh1gX-240" value="0.5" style="text;html=1;align=center;verticalAlign=middle;whiteSpace=wrap;rounded=0;" vertex="1" parent="1">
          <mxGeometry x="1020" y="1365" width="20" height="20" as="geometry" />
        </mxCell>
        <mxCell id="ISguq8svOf9T5D8Jh1gX-241" style="edgeStyle=orthogonalEdgeStyle;rounded=0;orthogonalLoop=1;jettySize=auto;html=1;exitX=1;exitY=0.5;exitDx=0;exitDy=0;entryX=0;entryY=0.5;entryDx=0;entryDy=0;" edge="1" parent="1" source="ISguq8svOf9T5D8Jh1gX-243" target="ISguq8svOf9T5D8Jh1gX-201">
          <mxGeometry relative="1" as="geometry" />
        </mxCell>
        <mxCell id="ISguq8svOf9T5D8Jh1gX-242" style="edgeStyle=orthogonalEdgeStyle;rounded=0;orthogonalLoop=1;jettySize=auto;html=1;exitX=1;exitY=0.5;exitDx=0;exitDy=0;entryX=0.5;entryY=0;entryDx=0;entryDy=0;" edge="1" parent="1" source="ISguq8svOf9T5D8Jh1gX-243" target="ISguq8svOf9T5D8Jh1gX-206">
          <mxGeometry relative="1" as="geometry" />
        </mxCell>
        <mxCell id="ISguq8svOf9T5D8Jh1gX-243" value="x(m + 2)" style="text;html=1;align=center;verticalAlign=middle;whiteSpace=wrap;rounded=0;" vertex="1" parent="1">
          <mxGeometry x="260" y="1300" width="65" height="30" as="geometry" />
        </mxCell>
        <mxCell id="ISguq8svOf9T5D8Jh1gX-244" style="edgeStyle=orthogonalEdgeStyle;rounded=0;orthogonalLoop=1;jettySize=auto;html=1;exitX=0.5;exitY=1;exitDx=0;exitDy=0;entryX=0.5;entryY=0;entryDx=0;entryDy=0;" edge="1" parent="1" source="ISguq8svOf9T5D8Jh1gX-246" target="ISguq8svOf9T5D8Jh1gX-224">
          <mxGeometry relative="1" as="geometry" />
        </mxCell>
        <mxCell id="ISguq8svOf9T5D8Jh1gX-245" style="edgeStyle=orthogonalEdgeStyle;rounded=0;orthogonalLoop=1;jettySize=auto;html=1;exitX=0.5;exitY=1;exitDx=0;exitDy=0;entryX=0.5;entryY=0;entryDx=0;entryDy=0;jumpStyle=arc;jumpSize=10;" edge="1" parent="1" source="ISguq8svOf9T5D8Jh1gX-246" target="ISguq8svOf9T5D8Jh1gX-226">
          <mxGeometry relative="1" as="geometry">
            <Array as="points">
              <mxPoint x="790" y="1485" />
              <mxPoint x="740" y="1485" />
              <mxPoint x="740" y="1565" />
              <mxPoint x="790" y="1565" />
            </Array>
          </mxGeometry>
        </mxCell>
        <mxCell id="ISguq8svOf9T5D8Jh1gX-246" value="x-1" style="rounded=0;whiteSpace=wrap;html=1;" vertex="1" parent="1">
          <mxGeometry x="780" y="1425" width="20" height="20" as="geometry" />
        </mxCell>
        <mxCell id="ISguq8svOf9T5D8Jh1gX-273" style="edgeStyle=orthogonalEdgeStyle;rounded=0;orthogonalLoop=1;jettySize=auto;html=1;exitX=0.5;exitY=1;exitDx=0;exitDy=0;entryX=0;entryY=0.5;entryDx=0;entryDy=0;" edge="1" parent="1" source="ISguq8svOf9T5D8Jh1gX-248" target="ISguq8svOf9T5D8Jh1gX-232">
          <mxGeometry relative="1" as="geometry" />
        </mxCell>
        <mxCell id="ISguq8svOf9T5D8Jh1gX-248" value="x-1" style="rounded=0;whiteSpace=wrap;html=1;" vertex="1" parent="1">
          <mxGeometry x="620" y="1560" width="20" height="20" as="geometry" />
        </mxCell>
        <mxCell id="ISguq8svOf9T5D8Jh1gX-249" style="edgeStyle=orthogonalEdgeStyle;rounded=0;orthogonalLoop=1;jettySize=auto;html=1;exitX=0;exitY=0.5;exitDx=0;exitDy=0;entryX=0.5;entryY=0;entryDx=0;entryDy=0;jumpStyle=arc;jumpSize=10;" edge="1" parent="1" source="ISguq8svOf9T5D8Jh1gX-250" target="ISguq8svOf9T5D8Jh1gX-230">
          <mxGeometry relative="1" as="geometry">
            <Array as="points">
              <mxPoint x="920" y="1435" />
              <mxPoint x="920" y="1565" />
              <mxPoint x="990" y="1565" />
            </Array>
          </mxGeometry>
        </mxCell>
        <mxCell id="ISguq8svOf9T5D8Jh1gX-250" value="x-1" style="rounded=0;whiteSpace=wrap;html=1;" vertex="1" parent="1">
          <mxGeometry x="940" y="1425" width="20" height="20" as="geometry" />
        </mxCell>
        <mxCell id="ISguq8svOf9T5D8Jh1gX-251" value="" style="ellipse;whiteSpace=wrap;html=1;aspect=fixed;gradientColor=none;fillColor=#000000;" vertex="1" parent="1">
          <mxGeometry x="585" y="1310" width="10" height="10" as="geometry" />
        </mxCell>
        <mxCell id="ISguq8svOf9T5D8Jh1gX-252" value="" style="ellipse;whiteSpace=wrap;html=1;aspect=fixed;gradientColor=none;fillColor=#000000;" vertex="1" parent="1">
          <mxGeometry x="585" y="1339" width="10" height="10" as="geometry" />
        </mxCell>
        <mxCell id="ISguq8svOf9T5D8Jh1gX-253" value="" style="ellipse;whiteSpace=wrap;html=1;aspect=fixed;gradientColor=none;fillColor=#000000;" vertex="1" parent="1">
          <mxGeometry x="585" y="1400" width="10" height="10" as="geometry" />
        </mxCell>
        <mxCell id="ISguq8svOf9T5D8Jh1gX-255" value="" style="ellipse;whiteSpace=wrap;html=1;aspect=fixed;gradientColor=none;fillColor=#000000;" vertex="1" parent="1">
          <mxGeometry x="785" y="1310" width="10" height="10" as="geometry" />
        </mxCell>
        <mxCell id="ISguq8svOf9T5D8Jh1gX-256" value="" style="ellipse;whiteSpace=wrap;html=1;aspect=fixed;gradientColor=none;fillColor=#000000;" vertex="1" parent="1">
          <mxGeometry x="785" y="1480" width="10" height="10" as="geometry" />
        </mxCell>
        <mxCell id="ISguq8svOf9T5D8Jh1gX-257" value="" style="ellipse;whiteSpace=wrap;html=1;aspect=fixed;gradientColor=none;fillColor=#000000;" vertex="1" parent="1">
          <mxGeometry x="985" y="1430" width="10" height="10" as="geometry" />
        </mxCell>
        <mxCell id="ISguq8svOf9T5D8Jh1gX-258" style="edgeStyle=orthogonalEdgeStyle;rounded=0;orthogonalLoop=1;jettySize=auto;html=1;exitX=0.5;exitY=1;exitDx=0;exitDy=0;entryX=0.5;entryY=0;entryDx=0;entryDy=0;" edge="1" parent="1" source="ISguq8svOf9T5D8Jh1gX-259" target="ISguq8svOf9T5D8Jh1gX-263">
          <mxGeometry relative="1" as="geometry" />
        </mxCell>
        <mxCell id="ISguq8svOf9T5D8Jh1gX-259" value="" style="shape=sumEllipse;perimeter=ellipsePerimeter;whiteSpace=wrap;html=1;backgroundOutline=1;" vertex="1" parent="1">
          <mxGeometry x="1080" y="1505" width="20" height="20" as="geometry" />
        </mxCell>
        <mxCell id="ISguq8svOf9T5D8Jh1gX-260" style="edgeStyle=orthogonalEdgeStyle;rounded=0;orthogonalLoop=1;jettySize=auto;html=1;exitX=0;exitY=0.5;exitDx=0;exitDy=0;entryX=1;entryY=0.5;entryDx=0;entryDy=0;" edge="1" parent="1" source="ISguq8svOf9T5D8Jh1gX-261" target="ISguq8svOf9T5D8Jh1gX-259">
          <mxGeometry relative="1" as="geometry" />
        </mxCell>
        <mxCell id="ISguq8svOf9T5D8Jh1gX-261" value="u" style="text;html=1;align=center;verticalAlign=middle;whiteSpace=wrap;rounded=0;" vertex="1" parent="1">
          <mxGeometry x="1120" y="1500" width="25" height="30" as="geometry" />
        </mxCell>
        <mxCell id="ISguq8svOf9T5D8Jh1gX-262" style="edgeStyle=orthogonalEdgeStyle;rounded=0;orthogonalLoop=1;jettySize=auto;html=1;exitX=0.5;exitY=1;exitDx=0;exitDy=0;entryX=0.5;entryY=0;entryDx=0;entryDy=0;" edge="1" parent="1" source="ISguq8svOf9T5D8Jh1gX-263" target="ISguq8svOf9T5D8Jh1gX-265">
          <mxGeometry relative="1" as="geometry" />
        </mxCell>
        <mxCell id="ISguq8svOf9T5D8Jh1gX-263" value="" style="shape=orEllipse;perimeter=ellipsePerimeter;whiteSpace=wrap;html=1;backgroundOutline=1;" vertex="1" parent="1">
          <mxGeometry x="1080" y="1625" width="20" height="20" as="geometry" />
        </mxCell>
        <mxCell id="ISguq8svOf9T5D8Jh1gX-264" style="edgeStyle=orthogonalEdgeStyle;rounded=0;orthogonalLoop=1;jettySize=auto;html=1;exitX=0.5;exitY=1;exitDx=0;exitDy=0;entryX=0.5;entryY=0;entryDx=0;entryDy=0;" edge="1" parent="1" source="ISguq8svOf9T5D8Jh1gX-265" target="ISguq8svOf9T5D8Jh1gX-269">
          <mxGeometry relative="1" as="geometry" />
        </mxCell>
        <mxCell id="ISguq8svOf9T5D8Jh1gX-265" value="" style="shape=sumEllipse;perimeter=ellipsePerimeter;whiteSpace=wrap;html=1;backgroundOutline=1;" vertex="1" parent="1">
          <mxGeometry x="1080" y="1700" width="20" height="20" as="geometry" />
        </mxCell>
        <mxCell id="ISguq8svOf9T5D8Jh1gX-266" style="edgeStyle=orthogonalEdgeStyle;rounded=0;orthogonalLoop=1;jettySize=auto;html=1;exitX=0;exitY=0.5;exitDx=0;exitDy=0;entryX=1;entryY=0.5;entryDx=0;entryDy=0;" edge="1" parent="1" source="ISguq8svOf9T5D8Jh1gX-267" target="ISguq8svOf9T5D8Jh1gX-265">
          <mxGeometry relative="1" as="geometry" />
        </mxCell>
        <mxCell id="ISguq8svOf9T5D8Jh1gX-267" value="u" style="text;html=1;align=center;verticalAlign=middle;whiteSpace=wrap;rounded=0;" vertex="1" parent="1">
          <mxGeometry x="1122" y="1695" width="25" height="30" as="geometry" />
        </mxCell>
        <mxCell id="ISguq8svOf9T5D8Jh1gX-268" style="edgeStyle=orthogonalEdgeStyle;rounded=0;orthogonalLoop=1;jettySize=auto;html=1;exitX=0.5;exitY=1;exitDx=0;exitDy=0;" edge="1" parent="1" source="ISguq8svOf9T5D8Jh1gX-269">
          <mxGeometry relative="1" as="geometry">
            <mxPoint x="1090" y="1815" as="targetPoint" />
          </mxGeometry>
        </mxCell>
        <mxCell id="ISguq8svOf9T5D8Jh1gX-269" value="" style="shape=orEllipse;perimeter=ellipsePerimeter;whiteSpace=wrap;html=1;backgroundOutline=1;" vertex="1" parent="1">
          <mxGeometry x="1080" y="1765" width="20" height="20" as="geometry" />
        </mxCell>
        <mxCell id="ISguq8svOf9T5D8Jh1gX-270" style="edgeStyle=orthogonalEdgeStyle;rounded=0;orthogonalLoop=1;jettySize=auto;html=1;exitX=1;exitY=0.5;exitDx=0;exitDy=0;entryX=0;entryY=0.5;entryDx=0;entryDy=0;jumpStyle=arc;jumpSize=10;" edge="1" parent="1" source="ISguq8svOf9T5D8Jh1gX-212" target="ISguq8svOf9T5D8Jh1gX-269">
          <mxGeometry relative="1" as="geometry">
            <Array as="points">
              <mxPoint x="840" y="1315" />
              <mxPoint x="840" y="1775" />
            </Array>
          </mxGeometry>
        </mxCell>
        <mxCell id="ISguq8svOf9T5D8Jh1gX-271" value="" style="ellipse;whiteSpace=wrap;html=1;aspect=fixed;gradientColor=none;fillColor=#000000;" vertex="1" parent="1">
          <mxGeometry x="835" y="1310" width="10" height="10" as="geometry" />
        </mxCell>
        <mxCell id="ISguq8svOf9T5D8Jh1gX-275" value="" style="ellipse;whiteSpace=wrap;html=1;aspect=fixed;gradientColor=none;fillColor=#000000;" vertex="1" parent="1">
          <mxGeometry x="625" y="1509" width="10" height="10" as="geometry" />
        </mxCell>
      </root>
    </mxGraphModel>
  </diagram>
</mxfile>
